<svg xmlns="http://www.w3.org/2000/svg" width="38" height="24" viewBox="0 0 38 24"><title>Afterpay</title><g fill="none" fill-rule="evenodd"><path fill="#B2FCE4" d="M0 0h38v24H0z"/><path fill="#000" fill-rule="nonzero" d="m24.045 5.778-2.47-1.464c-1.648-.915-3.752.275-3.752 2.196v.366c0 .183.092.366.275.458l1.189.64c.366.183.732-.091.732-.457v-.732c0-.366.366-.64.732-.458l2.287 1.281 2.196 1.373c.366.183.366.64 0 .823l-2.287 1.281-2.288 1.464c-.366.183-.732-.092-.732-.458v-.365c0-1.922-2.104-3.111-3.75-2.196l-2.471 1.464-2.47 1.463c-1.648.915-1.648 3.386 0 4.3l2.47 1.465 2.47 1.464c1.647.915 3.751-.275 3.751-2.196v-.366a.5.5 0 0 0-.274-.458l-1.19-.64c-.365-.183-.731.091-.731.457v.732c0 .366-.366.64-.732.458l-2.288-1.281-2.287-1.373c-.366-.183-.366-.64 0-.823l2.287-1.281L17 11.634c.366-.183.732.092.732.457v.366c0 1.922 2.104 3.111 3.75 2.196l2.471-1.464 2.47-1.463c1.74-1.098 1.74-3.477.092-4.484z"/></g></svg>