<svg xmlns="http://www.w3.org/2000/svg" width="38" height="24" viewBox="0 0 38 24"><title>Alipay</title><g fill="none" fill-rule="evenodd"><path fill="#FFF" d="M0 0h38v24H0z"/><g fill-rule="nonzero"><path fill="#000" d="m33.993 10.087.007-.008h-1.12l-.709 2.454h-.037l-.813-2.454h-1.332l1.603 4.05-.67 1.236v.03h1.046zM21.567 10.079h-1.19v4.036h1.19zM29.755 13.105V11.42c0-.918-.542-1.423-1.498-1.423-.61 0-1.03.106-1.799.339l.21.926c.7-.316 1.009-.451 1.333-.451.39 0 .564.278.564.708v.03c-1.362.255-1.784.399-2.046.662-.196.196-.279.475-.279.798 0 .776.602 1.19 1.166 1.19.422 0 .76-.158 1.22-.505l.083.422h1.188zm-1.189.031c-.316.173-.496.24-.707.24-.286 0-.467-.187-.467-.488 0-.113.023-.226.113-.316.143-.143.421-.249 1.061-.4zM24.525 9.996c-.437 0-.775.166-1.16.482v-.399h-1.188v5.315h1.188v-1.318c.227.06.437.091.693.091 1.061 0 2.017-.783 2.017-2.176 0-1.25-.692-1.995-1.55-1.995m-.753 3.426c-.136 0-.264-.015-.407-.06v-2.184c.248-.173.451-.256.707-.256.444 0 .798.354.798 1.108 0 .963-.519 1.392-1.098 1.392"/><path fill="#1677FF" d="M10.3 8H5.202C4.538 8 4 8.543 4 9.212v5.143c0 .67.538 1.212 1.202 1.212H10.3c.663 0 1.2-.543 1.2-1.212V9.212C11.502 8.542 10.964 8 10.3 8"/><path fill="#FFF" d="M10.176 12.752c-.3-.101-.703-.257-1.152-.42a6.2 6.2 0 0 0 .627-1.596H8.17v-.537h1.812v-.3H8.172v-.896h-.74c-.129 0-.129.13-.129.13v.765H5.472v.3h1.831v.537H5.79v.3h2.934a5.3 5.3 0 0 1-.422 1.042c-.952-.317-1.968-.573-2.606-.415-.408.101-.67.282-.825.472-.709.87-.2 2.19 1.296 2.19.885 0 1.737-.497 2.397-1.317.986.478 2.937 1.299 2.937 1.299v-1.17s-.245-.02-1.325-.384m-4.149 1.067c-1.167 0-1.512-.927-.935-1.434.193-.172.544-.255.731-.274.693-.069 1.335.198 2.092.57-.532.701-1.21 1.138-1.888 1.138"/><path fill="#000" d="M16.29 8.807h-1.595l-1.783 5.308h1.099l.301-1.04h1.889l.286 1.04h1.407zm-1.73 3.403.707-2.447h.03l.67 2.447zM19.564 8.618h-1.189v5.496h1.19z"/><path fill="#1677FF" d="M20.287 9.108c0 .391.286.655.685.655s.685-.264.685-.655c0-.384-.286-.655-.685-.655s-.685.27-.685.655"/></g></g></svg>