<svg xmlns="http://www.w3.org/2000/svg" width="38" height="24" viewBox="0 0 38 24"><title>Amazon</title><g fill="none" fill-rule="evenodd"><path fill="#FFF" d="M0 0h38v24H0z"/><path fill="#F90" d="M22.861 16.408c.212-.536.681-1.738.458-2.029h.002c-.223-.292-1.471-.138-2.033-.07h-.001c-.171.022-.197-.13-.044-.24.997-.716 2.631-.511 2.821-.27.19.242-.052 1.915-.986 2.714-.143.123-.28.057-.217-.105m-6.71.828c2.172 0 4.701-.7 6.443-2.014v.002c.289-.221.042-.547-.252-.42a15.4 15.4 0 0 1-6.007 1.26c-2.864 0-5.634-.803-7.875-2.135-.196-.116-.342.09-.178.24a11.52 11.52 0 0 0 7.87 3.067"/><path fill="#000" d="M30.353 13.304h.925a.18.18 0 0 0 .181-.175V10.51c0-.329.018-.626.147-.923a.61.61 0 0 1 .538-.39c.591 0 .585.663.581 1.183v2.771c.01.085.08.149.164.153h.933A.18.18 0 0 0 34 13.15v-3.062c0-.471 0-1.126-.242-1.516-.262-.42-.668-.573-1.084-.573-.64 0-1.004.317-1.264.983h-.018v-.745a.18.18 0 0 0-.164-.136h-.861a.177.177 0 0 0-.179.16v4.867c.002.093.074.17.165.175m-.87-2.553c0-1.536-.746-2.744-2.123-2.744-1.343 0-2.088 1.188-2.088 2.693 0 1.504.736 2.713 2.088 2.713 1.3 0 2.122-1.178 2.122-2.662m-2.842-.205c0-.594.043-1.546.728-1.546.294 0 .501.135.606.471.121.389.139.88.139 1.29 0 .624-.027 1.648-.755 1.648-.719 0-.718-1.241-.718-1.843zM9.284 13.314h.928a.17.17 0 0 0 .126-.05.18.18 0 0 0 .054-.126V10.52c0-.56-.002-1.302.64-1.302.593 0 .584.651.577 1.178l-.002.164v2.58c.002.093.073.17.165.175h.93a.17.17 0 0 0 .124-.05.18.18 0 0 0 .054-.126V10.5c-.001-.274-.002-.643.087-.872a.62.62 0 0 1 .554-.399c.269 0 .477.093.546.42.035.158.03.523.027.765l-.001.146v2.58c0 .093.073.17.164.175h.927a.17.17 0 0 0 .126-.05.18.18 0 0 0 .053-.126v-3.07l.003-.229c.008-.458.016-.947-.237-1.297a1.356 1.356 0 0 0-2.36.374c-.26-.616-.632-.902-1.204-.902-.571 0-.996.286-1.221.902h-.017V8.28a.176.176 0 0 0-.165-.168h-.865a.177.177 0 0 0-.177.174v4.867a.176.176 0 0 0 .164.16m-1.614.037a.19.19 0 0 1-.22.022c-.262-.223-.341-.344-.463-.53l-.068-.102c-.51.53-.87.69-1.53.69-.781 0-1.389-.493-1.389-1.479 0-.77.41-1.292.986-1.549.424-.19.99-.25 1.48-.3l.264-.029V9.88c.002-.208.004-.44-.112-.616-.114-.175-.329-.246-.521-.246-.354 0-.67.185-.747.569a.2.2 0 0 1-.164.174l-.892-.1a.16.16 0 0 1-.11-.068.17.17 0 0 1-.028-.13c.206-1.114 1.192-1.45 2.075-1.45.452 0 1.042.122 1.396.471.417.399.414.92.412 1.49v1.618c0 .398.144.596.296.804l.054.075c.059.084.072.189 0 .252-.19.162-.527.46-.711.63zm-.936-2.312v.046c0 .35.001.645-.173.961-.148.267-.382.432-.643.432-.356 0-.563-.277-.563-.688 0-.808.708-.954 1.38-.954zm13.762 1.354.055.075c.062.087.075.19-.004.247-.19.162-.527.462-.712.63a.19.19 0 0 1-.219.022 2 2 0 0 1-.465-.532l-.067-.1c-.51.53-.873.688-1.53.688-.78 0-1.389-.492-1.389-1.476 0-.77.408-1.294.99-1.55.426-.191.995-.25 1.487-.3l.258-.028v-.191c.002-.21.004-.442-.114-.617-.11-.174-.329-.246-.52-.246-.354 0-.668.185-.746.569a.2.2 0 0 1-.164.174l-.9-.099a.16.16 0 0 1-.111-.069.17.17 0 0 1-.028-.13c.207-1.115 1.193-1.45 2.076-1.45.451 0 1.04.122 1.396.47.418.397.415.915.412 1.482v1.628c0 .397.143.594.295.803m-2.411.08c.26 0 .495-.165.642-.43.175-.319.175-.616.175-.97v-.242c-.672 0-1.38.146-1.38.954 0 .41.207.688.563.688m3.251-4.204v.694c0 .047.018.093.052.126.033.033.078.05.125.049h1.597l-1.831 2.685a.85.85 0 0 0-.114.478v.709c0 .102.111.219.217.16a3.45 3.45 0 0 1 3.223-.005c.115.061.225-.057.225-.16v-.745a.32.32 0 0 0-.165-.27c-.533-.307-1.153-.397-1.74-.383l1.581-2.304c.147-.206.23-.337.23-.437v-.597a.18.18 0 0 0-.052-.126.17.17 0 0 0-.125-.049h-3.05a.16.16 0 0 0-.124.048.17.17 0 0 0-.049.127"/></g></svg>