<svg xmlns="http://www.w3.org/2000/svg" width="38" height="24" viewBox="0 0 38 24"><title>American Express</title><g fill="none" fill-rule="evenodd"><path fill="#1F72CD" d="M0 0h38v24H0z"/><path fill="#FFF" d="M7.386 8 4 15.495h4.053l.503-1.195h1.148l.503 1.195h4.461v-.912l.398.912h2.308l.397-.931v.931h9.279l1.128-1.164 1.056 1.164 4.766.01-3.396-3.736L34 8h-4.692L28.21 9.143 27.187 8H17.093l-.867 1.935L15.34 8h-4.045v.881L10.844 8zM21.24 9.064h5.329l1.63 1.761 1.681-1.76h1.63l-2.476 2.703 2.476 2.672h-1.703l-1.63-1.782-1.69 1.782H21.24zm1.316 2.096v-.983h3.325l1.45 1.57-1.514 1.58h-3.26v-1.073h2.906V11.16zM8.17 9.064h1.976l2.246 5.083V9.064h2.164l1.734 3.645 1.599-3.645h2.154v5.379h-1.31l-.011-4.215-1.91 4.215h-1.173l-1.921-4.215v4.215h-2.696l-.51-1.206H7.75l-.51 1.205H5.796zm.051 3.058.91-2.148.909 2.148z"/></g></svg>