<svg xmlns="http://www.w3.org/2000/svg" width="38" height="24" viewBox="0 0 38 24"><title>Blik</title><defs><radialGradient id="blik-gradient-2" cx="9.449%" cy="-2.756%" r="163.93%" fx="9.449%" fy="-2.756%"><stop offset="0%" stop-color="red"/><stop offset="49%" stop-color="#E83E49"/><stop offset="100%" stop-color="#F0F"/></radialGradient><linearGradient id="blik-gradient-1" x1="50%" x2="50%" y1="18.077%" y2="248.205%"><stop offset="0%"/><stop offset="73.2%" stop-color="#FFF"/><stop offset="100%" stop-color="#FFF"/></linearGradient></defs><g fill="none" fill-rule="nonzero"><path fill="url(#blik-gradient-1)" d="M0 0h38v24H0z"/><path fill="#FFF" d="m29.809 17.884-2.785-3.639 2.563-3.236h-2.185l-2.456 3.138V7.509h-1.848v10.375h1.848v-3.532l2.456 3.532h2.407ZM18.079 7.509h-1.848v10.366h1.848V7.509Zm3.433 3.508h-1.848v6.867h1.848v-6.867Z"/><path fill="url(#blik-gradient-2)" d="M5.315 3.302a1.651 1.651 0 1 0 0-3.302 1.651 1.651 0 0 0 0 3.302Z" transform="translate(8 7)"/><path fill="#FFF" d="M11.507 10.935c-.574 0-1.138.144-1.642.419V7.549H8v6.9a3.516 3.516 0 1 0 3.507-3.515v.001Zm0 5.175a1.643 1.643 0 1 1 0-3.286 1.643 1.643 0 0 1 0 3.286Z"/></g></svg>