<svg xmlns="http://www.w3.org/2000/svg" width="38" height="24" viewBox="0 0 38 24"><title>Boleto</title><g fill="none" fill-rule="evenodd"><path fill="#FFF" d="M0 0h38v24H0z"/><path fill="#221F1F" fill-rule="nonzero" d="M8.831 5h.7v6.298h-.7zm-1.83 0h.7v6.298h-.7zm7.256 0h1.901v6.298h-1.901zm9.715 0h.95v6.298h-.95zm2.324 0h.95v6.298h-.95zM30.1 5h1.221v6.298H30.1zm-1.375 0h.395v6.298h-.395zm-6.389 0h.395v6.298h-.395zm-.845 0h.395v6.298h-.395zm-2.746 0h.395v6.298h-.395zm-6.31 0h.395v6.298h-.395zm-1.163 0h.733v6.298h-.733zM7.001 19.355v-6.478h2.431q.742 0 1.191.196.448.197.701.606.255.406.255.855 0 .415-.225.781c-.165.259-.4.464-.679.593q.589.173.903.588.317.414.317.98 0 .457-.193.847a1.64 1.64 0 0 1-.475.603q-.283.21-.709.32a4.3 4.3 0 0 1-1.046.109H7zm.86-3.755h1.401q.57 0 .817-.075a.9.9 0 0 0 .493-.324.94.94 0 0 0 .166-.567 1.03 1.03 0 0 0-.155-.568.78.78 0 0 0-.442-.338q-.288-.09-.985-.09H7.861v1.963zm0 2.995h1.614q.415 0 .585-.032.295-.053.495-.176a.95.95 0 0 0 .327-.362q.129-.238.128-.547 0-.363-.187-.632a.98.98 0 0 0-.516-.377q-.329-.108-.947-.109H7.861zm4.813-1.588q0-1.3.725-1.927.605-.52 1.476-.52.967 0 1.582.633.614.632.614 1.748 0 .905-.271 1.422a1.9 1.9 0 0 1-.792.805c-.346.191-.736.29-1.132.286q-.985 0-1.594-.63-.608-.632-.608-1.817m.814.002q0 .9.394 1.347.395.448.994.448.592 0 .988-.449.393-.45.394-1.371 0-.869-.397-1.315a1.26 1.26 0 0 0-.985-.448q-.599 0-.994.445-.393.445-.394 1.344zm4.498 2.346v-6.478h.796v6.478zm5.231-1.52.823.109q-.193.718-.718 1.114t-1.341.397q-1.027 0-1.629-.633-.602-.632-.602-1.775 0-1.181.608-1.834.609-.654 1.579-.653.939 0 1.534.639.596.64.596 1.8l-.004.211h-3.497q.044.772.437 1.182c.253.27.61.419.979.41q.437 0 .745-.231.31-.231.49-.737zm-2.606-1.276h2.615q-.053-.593-.3-.888c-.237-.3-.601-.47-.983-.46q-.547 0-.92.366-.371.367-.412.982m6.164 2.086.109.703a3 3 0 0 1-.599.071q-.431 0-.671-.137a.77.77 0 0 1-.335-.36q-.097-.224-.097-.941v-2.705h-.588v-.615h.588V13.5l.796-.478v1.639h.796v.615h-.796v2.751q0 .342.042.439c.027.065.075.12.136.155a.53.53 0 0 0 .271.057l.347-.032zm.487-1.638q0-1.3.725-1.927.605-.52 1.476-.52.966 0 1.582.633.614.632.614 1.748 0 .905-.271 1.422a1.9 1.9 0 0 1-.792.805c-.346.191-.736.29-1.132.286q-.985 0-1.594-.63-.608-.632-.608-1.817m.814.002q0 .9.394 1.347.395.448.994.448.592 0 .988-.449.393-.45.394-1.371 0-.869-.397-1.315a1.26 1.26 0 0 0-.985-.448q-.599 0-.994.445-.393.445-.394 1.344z"/></g></svg>