<svg xmlns="http://www.w3.org/2000/svg" width="38" height="24" viewBox="0 0 38 24"><title>Cashapp Pay</title><g fill="none" fill-rule="evenodd"><path fill="#00D64F" d="M0 0h38v24H0z"/><path fill="#FFF" d="M19.198 7.83c1.243 0 2.434.502 3.213 1.194a.49.49 0 0 0 .677-.015l.925-.94a.483.483 0 0 0-.023-.703 7.3 7.3 0 0 0-2.483-1.397l.291-1.383A.485.485 0 0 0 21.324 4h-1.79c-.23 0-.426.16-.474.385l-.263 1.23c-2.378.12-4.393 1.307-4.393 3.743 0 2.11 1.668 3.014 3.428 3.64 1.668.625 2.548.858 2.548 1.739 0 .904-.88 1.437-2.177 1.437-1.184 0-2.423-.391-3.385-1.34a.483.483 0 0 0-.678 0l-.995.982a.49.49 0 0 0 .002.697c.776.754 1.759 1.3 2.88 1.605l-.273 1.28a.485.485 0 0 0 .47.588l1.793.014a.484.484 0 0 0 .479-.386l.258-1.232c2.849-.176 4.592-1.726 4.592-3.993 0-2.087-1.738-2.968-3.846-3.686-1.204-.44-2.248-.742-2.248-1.645 0-.881.974-1.229 1.946-1.229"/></g></svg>