<svg xmlns="http://www.w3.org/2000/svg" width="38" height="24" viewBox="0 0 38 24"><title>Dankort</title><g fill="none" fill-rule="evenodd"><path fill="#FFF" d="M0 0h38v24H0z"/><path fill="#E31F28" d="M18.21 15.86c1.127-.737 1.853-1.875 2.18-3.418l3.595 4.535h6.889a7.838 7.838 0 0 1-2.736 2.192 7.723 7.723 0 0 1-3.527.83H11.647a7.762 7.762 0 0 1-3.526-.831 7.789 7.789 0 0 1-2.737-2.207h8.101c2.034.001 3.61-.366 4.726-1.1Zm-3.499-5.283c.29.263.367.65.231 1.158-.171.59-.39 1.003-.652 1.239-.318.28-.8.423-1.445.423H8.203l1.144-3.16h4.194c.518 0 .908.113 1.17.34Zm13.316-5.815a7.886 7.886 0 0 1 2.67 2.056h-6.741l-3.405 3.527c-.117-1.28-.73-2.211-1.836-2.792-.953-.49-2.306-.736-4.058-.736H5.56A7.994 7.994 0 0 1 11.647 4h12.964c1.198 0 2.337.254 3.416.762Zm-1.142 6.645 4.165-4.153c.499.67.89 1.415 1.158 2.207.274.817.408 1.666.408 2.546 0 .826-.122 1.63-.365 2.409a8.018 8.018 0 0 1-1.05 2.123l-4.316-5.132Z"/></g></svg>