<svg xmlns="http://www.w3.org/2000/svg" width="38" height="24" viewBox="0 0 38 24"><title>Diners Club</title><g fill="none" fill-rule="evenodd"><path fill="#FFF" d="M0 0h38v24H0z"/><g fill-rule="nonzero"><path fill="#0079BE" d="M20.733 20c4.373.02 8.365-3.566 8.365-7.93 0-4.773-3.992-8.072-8.365-8.07H16.97c-4.425-.002-8.068 3.298-8.068 8.07 0 4.365 3.643 7.95 8.068 7.93h3.763Z"/><path fill="#FFF" d="M16.988 4.661a7.324 7.324 0 0 0 0 14.648 7.324 7.324 0 0 0 0-14.648Zm-4.641 7.325a4.65 4.65 0 0 1 2.98-4.333v8.664a4.648 4.648 0 0 1-2.98-4.331Zm6.302 4.333V7.653a4.647 4.647 0 0 1 2.981 4.333 4.649 4.649 0 0 1-2.981 4.333Z"/></g></g></svg>