<svg xmlns="http://www.w3.org/2000/svg" width="38" height="24" viewBox="0 0 38 24"><title>Discover</title><defs><linearGradient id="payment-discover-gradient-1" x1="75.537%" x2="40.993%" y1="90.02%" y2="35.926%"><stop offset="0%" stop-color="#F89F20"/><stop offset="25%" stop-color="#F79A20"/><stop offset="53.3%" stop-color="#F68D20"/><stop offset="62%" stop-color="#F58720"/><stop offset="72.3%" stop-color="#F48120"/><stop offset="100%" stop-color="#F37521"/></linearGradient><linearGradient id="payment-discover-gradient-2" x1="70.096%" x2="19.601%" y1="89.287%" y2="-9.417%"><stop offset="0%" stop-color="#F58720"/><stop offset="35.9%" stop-color="#E16F27"/><stop offset="70.3%" stop-color="#D4602C"/><stop offset="98.2%" stop-color="#D05B2E"/></linearGradient></defs><g fill="none" fill-rule="evenodd"><path fill="#FFF" d="M0 0h38v24H0z"/><g fill-rule="nonzero"><path fill="#231F20" d="M5.309 8.503H3.935v4.814h1.374c.726 0 1.251-.175 1.715-.552A2.407 2.407 0 0 0 7.9 10.92c-.008-1.427-1.067-2.416-2.59-2.416Zm1.103 3.623c-.298.263-.674.386-1.287.386h-.254V9.326h.254c.604 0 .972.105 1.287.385.323.289.516.735.516 1.199 0 .464-.193.928-.516 1.216Zm1.916-3.623h.937v4.814h-.937V8.503Zm2.503 1.243c0-.306.298-.534.7-.534.28 0 .517.114.753.394l.49-.639a2.116 2.116 0 0 0-1.418-.534c-.849 0-1.505.595-1.505 1.383 0 .665.306 1.007 1.181 1.322.368.13.552.218.648.27.184.123.28.298.28.5 0 .394-.306.682-.726.682-.447 0-.805-.227-1.024-.639l-.604.587c.429.639.954.919 1.663.919.971 0 1.662-.648 1.662-1.584.018-.78-.306-1.13-1.373-1.523-.56-.21-.727-.35-.727-.604Zm4.945 3.684a2.56 2.56 0 0 0 1.172-.28v-1.102c-.376.376-.708.525-1.129.525-.945 0-1.619-.683-1.619-1.663 0-.928.692-1.654 1.576-1.654.446 0 .787.158 1.172.543V8.696c-.41-.21-.752-.298-1.155-.298-1.409 0-2.555 1.12-2.555 2.52 0 1.419 1.111 2.512 2.538 2.512Zm7.342-4.927h-1.024l2.04 4.936h.507l2.074-4.936H25.7l-1.295 3.238-1.287-3.238Zm6.686 4.814v-.814H28.08v-1.295h1.663v-.814H28.08V9.326h1.724v-.823h-2.66v4.814h2.66Zm2.013-4.805h-1.391v4.813h.936v-1.934h.123l1.295 1.934h1.155l-1.514-2.03c.709-.149 1.103-.63 1.103-1.365 0-.902-.622-1.418-1.707-1.418Zm-.455 2.214V9.265h.289c.586 0 .901.245.901.717 0 .482-.315.744-.919.744h-.27Z"/><path fill="url(#payment-discover-gradient-1)" d="M18.458 2.565a2.565 2.565 0 1 0-5.13 0 2.565 2.565 0 0 0 5.13 0Z" transform="translate(3.935 8.362)"/><path fill="url(#payment-discover-gradient-2)" d="M18.458 2.565a2.565 2.565 0 1 0-5.13 0 2.565 2.565 0 0 0 5.13 0Z" opacity=".65" transform="translate(3.935 8.362)"/><path fill="#231F20" d="M34.41 8.542h-.16v.48h.12v-.19l.14.19h.14l-.16-.2c.06-.01.1-.06.1-.13 0-.1-.07-.15-.18-.15Zm-.02.22h-.02v-.13h.02c.06 0 .09.02.09.06 0 .05-.03.07-.09.07Z"/><path fill="#231F20" d="M34.43 8.362c-.23 0-.42.19-.42.42 0 .23.19.42.42.42.23 0 .42-.19.42-.42 0-.23-.19-.42-.42-.42Zm0 .77c-.18 0-.34-.15-.34-.35 0-.19.15-.35.34-.35.18 0 .33.16.33.35 0 .19-.15.35-.33.35Z"/></g><path fill="#F48120" fill-rule="nonzero" d="M9.976 24.002 38 24l.023-5.002L38 13.987c0-.001-9.91 6.888-28.024 10.015Z"/></g></svg>