<svg xmlns="http://www.w3.org/2000/svg" width="38" height="24" viewBox="0 0 38 24"><title>elo</title><defs><path id="a" d="M0 0h30v11.5H0z"/></defs><g fill="none" fill-rule="evenodd"><path fill="#FFF" d="M0 0h38v24H0z"/><path fill="#E63312" fill-rule="nonzero" d="M13.064 12.679a3.38 3.38 0 0 1-3.314 2.7q-.569 0-1.071-.172l-.75 2.243a5.7 5.7 0 0 0 1.821.293c2.779 0 5.1-1.972 5.636-4.593l-2.322-.479z"/><path fill="#1D1D1B" fill-rule="nonzero" d="m22.043 13.907-.064-.043a1.9 1.9 0 0 1-.858.722c-.714.307-1.371.228-1.842-.186l-.043.064-.807 1.207q.3.213.642.35c.893.372 1.808.35 2.708-.035a3.32 3.32 0 0 0 1.507-1.257l-1.229-.822zM19.52 10.93c-.75.321-1.135 1.028-1.057 1.857l3.186-1.372c-.55-.643-1.257-.857-2.121-.485zm-2.114 3.678a4 4 0 0 1-.243-.464 3.4 3.4 0 0 1-.071-2.579c.343-.928.993-1.643 1.836-2 1.057-.457 2.228-.364 3.242.236.643.371 1.1.943 1.45 1.75.043.1.086.214.122.307l-6.329 2.757z"/><path fill="#FC0" fill-rule="nonzero" d="M8.679 8.793a3.386 3.386 0 0 1 4.386 2.536l2.32-.472A5.755 5.755 0 0 0 7.93 6.55z"/><path fill="#00A0DE" fill-rule="nonzero" d="m5.936 16.307 1.571-1.771A3.39 3.39 0 0 1 6.364 12c0-1.007.443-1.914 1.143-2.529L5.936 7.7A5.74 5.74 0 0 0 4 12.007c0 1.714.75 3.25 1.943 4.307"/><path fill="#1D1D1B" fill-rule="nonzero" d="M25.95 7.779v6.714l1.043.421L26.4 16.3l-1.15-.479a1.36 1.36 0 0 1-.571-.478c-.129-.2-.222-.472-.222-.836V7.771h1.493zM28.657 12.786c0-.572.25-1.086.65-1.436l-1.071-1.193a3.49 3.49 0 0 0-1.186 2.629c0 1.043.457 1.985 1.179 2.628l1.071-1.193c-.4-.35-.65-.864-.65-1.428zM30.557 14.693q-.321-.002-.6-.1l-.514 1.521A3.517 3.517 0 0 0 34 13.493l-1.571-.322a1.914 1.914 0 0 1-1.865 1.522zM30.564 9.279c-.385 0-.764.064-1.114.178l.507 1.522a1.898 1.898 0 0 1 2.472 1.428L34 12.086a3.52 3.52 0 0 0-3.436-2.815z"/></g></svg>