<svg xmlns="http://www.w3.org/2000/svg" width="38" height="24" viewBox="0 0 38 24"><title>Facebook Pay</title><defs><linearGradient id="payment-fbpay-gradient-1" x1="100%" x2="19.916%" y1="35.476%" y2="80.687%"><stop offset="0%" stop-color="#24D365"/><stop offset="100%" stop-color="#139DBD"/></linearGradient><linearGradient id="payment-fbpay-gradient-2" x1="0%" x2="80.713%" y1="34.661%" y2="80.846%"><stop offset="0%" stop-color="#23D068"/><stop offset="52%" stop-color="#EACD36"/><stop offset="100%" stop-color="#FF6C5C"/></linearGradient><linearGradient id="payment-fbpay-gradient-3" x1="3.78%" x2="96.089%" y1="21.912%" y2="21.912%"><stop offset="0%" stop-color="#266FF3"/><stop offset="100%" stop-color="#C439D6"/></linearGradient><linearGradient id="payment-fbpay-gradient-4" x1="51.761%" x2="38.491%" y1="94.973%" y2="10.157%"><stop offset="0%" stop-color="#266FF3"/><stop offset="100%" stop-color="#149FBA"/></linearGradient><linearGradient id="payment-fbpay-gradient-5" x1="51.22%" x2="37.889%" y1="2.17%" y2="87.335%"><stop offset="0%" stop-color="#FF6C5C"/><stop offset="100%" stop-color="#C439D6"/></linearGradient></defs><g fill="none" fill-rule="evenodd"><path fill="#FFF" d="M0 0h38v24H0z"/><path fill="url(#payment-fbpay-gradient-1)" d="M5.34 0h.032v.804H5.34a4.54 4.54 0 0 0-4.336 3.192l-.767-.243A5.346 5.346 0 0 1 5.34 0Z" transform="translate(4 7)"/><path fill="url(#payment-fbpay-gradient-2)" d="M5.372.804V0H5.34a5.346 5.346 0 0 1 5.11 3.775l-.767.244A4.54 4.54 0 0 0 5.372.804Z" transform="translate(4 7)"/><path fill="url(#payment-fbpay-gradient-3)" d="m8.008 9.017.472.65a5.32 5.32 0 0 1-3.14 1.02 5.32 5.32 0 0 1-3.098-.989l.473-.651c.74.527 1.647.837 2.625.837.998 0 1.919-.322 2.668-.867Z" transform="translate(4 7)"/><path fill="url(#payment-fbpay-gradient-4)" d="m.238 3.753.766.243c-.135.436-.203.89-.203 1.347a4.53 4.53 0 0 0 1.914 3.704l-.472.651A5.339 5.339 0 0 1 0 5.531v-.375c.017-.487.1-.958.238-1.403Z" transform="translate(4 7)"/><path fill="url(#payment-fbpay-gradient-5)" d="M10.683 5.343A5.333 5.333 0 0 1 8.48 9.668l-.472-.65a4.49 4.49 0 0 0 1.375-1.606 4.574 4.574 0 0 0 .3-3.395l.766-.245c.154.496.235 1.024.235 1.572Z" transform="translate(4 7)"/><path fill="#64717D" d="M11.843 13.137c0-.278-.195-.403-.626-.403h-1.06v.804h1.06c.438 0 .626-.12.626-.401Zm-.775-1.686h-.912v.804h.912c.413 0 .6-.125.6-.4 0-.277-.19-.404-.6-.404Zm1.332 1.737c0 .536-.428.842-1.184.842h-1.56c-.027 0-.045-.018-.045-.044v-2.982c0-.027.018-.044.046-.044h1.422c.735 0 1.138.283 1.138.794 0 .302-.135.545-.526.662.495.103.695.395.709.772Zm-3.437-2.184v.416c0 .027-.018.044-.046.044H7.111v.778h1.5c.027 0 .044.018.044.045v.415c0 .027-.018.046-.046.046H7.112v1.238c0 .027-.018.044-.045.044h-.455c-.027 0-.045-.018-.045-.044v-2.982c0-.027.018-.044.045-.044H8.92c.027 0 .045.018.045.044h-.001Z"/><path fill="#1B2529" d="M29.956 10.545a44.567 44.567 0 0 0 1.525 4.025l1.4-4.025H34l-2.006 5.2c-.257.666-.561 1.18-.914 1.54-.352.362-.824.543-1.416.543-.147 0-.286-.012-.415-.035v-.908c.108.017.205.025.286.025.36 0 .652-.1.878-.3.226-.2.424-.493.595-.88a41.447 41.447 0 0 1-1.185-2.552c-.37-.87-.722-1.748-1.057-2.633h1.19Zm-4.155-.12c.628 0 1.134.177 1.517.533.384.357.576.89.576 1.6v3.03h-.985v-.823a2.024 2.024 0 0 1-.765.685c-.33.163-.694.246-1.062.24-.542 0-.961-.138-1.26-.412-.3-.274-.45-.635-.45-1.082 0-.443.17-.816.506-1.115.337-.298.875-.449 1.614-.449h1.395v-.014c0-.848-.396-1.272-1.19-1.272-.332 0-.61.059-.84.177-.226.118-.41.282-.55.495l-.703-.56c.218-.333.506-.589.864-.767.38-.183.798-.275 1.22-.267h.112Zm-5.83-1.896c.9 0 1.572.21 2.016.632.444.422.667.994.667 1.717 0 .72-.223 1.292-.667 1.715-.444.424-1.117.635-2.016.635h-1.93v2.36h-1.078v-7.06h3.007Zm6.916 4.896h-1.355c-.403 0-.69.064-.864.19a.6.6 0 0 0-.259.512c0 .443.299.665.898.665.397 0 .727-.088.99-.265.264-.176.461-.416.59-.719v-.383ZM19.87 9.516H18.04v2.724h1.827c.585 0 1.011-.113 1.28-.34.269-.227.402-.567.402-1.022 0-.454-.133-.794-.401-1.021-.27-.227-.696-.34-1.281-.34Z"/></g></svg>