<svg xmlns="http://www.w3.org/2000/svg" width="38" height="24" viewBox="0 0 38 24"><title>forbrugsforeningen</title><g fill="none" fill-rule="evenodd"><path fill="#7997C9" d="M0 0h38v24H0z"/><g fill="#FFF" fill-rule="nonzero"><path d="M16.93558 4.14063c-3.06692.36081-4.47738 1.54166-5.1334 4.28057-.44282 1.91888-.62323 1.78767 2.19768 1.78767h2.4273l.1148-1.21365c.18041-1.96808.47563-2.7389 1.39406-3.60814.75344-.8235 2.2633-1.19725 2.2141-1.27925-.09841-.16401-1.68928-.1312-3.21454.0328ZM22.70861 6.25631v1.64007l-.77083.1148c-1.09884.1476-1.67286.49202-1.95168 1.13165-.42641 1.03324-.39361 1.06604 1.24646 1.06604h1.47605v2.62411H19.7893l-.0656 2.08288c-.0492 1.75487-.11481 2.21409-.41002 2.75531-.44282.82003-1.27925 1.64007-2.01728 1.93528l-.55763.246 1.21365.11481c1.52526.1312 4.14937-.1476 5.26461-.55762 2.4109-.91844 3.31294-2.90292 3.29654-7.3967 0-2.7553-.26241-4.21497-1.03324-5.54342-.52483-.93484-1.70567-1.83687-2.3945-1.83687-.36081 0-.37722.0328-.37722 1.62366ZM11.51666 12.94154c-.1312.22961.18711 2.53194.46592 3.38478.37722 1.19725.83644 1.86967 1.59087 2.4273 1.01684.73802 1.09884.67242 1.09884-.90204v-1.36126l.50842-.1476c.85284-.24601 1.19725-.88564 1.26285-2.2961l.08094-1.10508h-5.00784Z"/></g></g></svg>