<svg xmlns="http://www.w3.org/2000/svg" width="38" height="24" viewBox="0 0 38 24"><title>Grab</title><g fill="none" fill-rule="evenodd"><path fill="#FFF" d="M0 0h38v24H0z"/><path fill="#00AB4E" fill-rule="nonzero" d="M32.91 10.607a3.67 3.67 0 0 0-2.584-1.09c-.727 0-1.413.282-1.817.525-.808.525-1.494 1.13-2.665 2.665v1.13c1.01-1.332 1.978-2.382 2.705-2.947a2.9 2.9 0 0 1 1.777-.646c1.574 0 2.947 1.332 2.947 2.947v.687c0 .807-.323 1.534-.888 2.1a2.87 2.87 0 0 1-2.06.847c-1.291 0-2.462-.888-2.785-2.14l-.525.646c.363 1.292 1.776 2.22 3.31 2.22.97 0 1.898-.403 2.585-1.09A3.67 3.67 0 0 0 34 13.879v-.687c0-.969-.363-1.898-1.09-2.584m-15.99-.363c.525 0 .93.12 1.333.323.202-.243.363-.404.525-.566-.404-.323-1.13-.525-1.857-.525-1.05 0-1.979.364-2.665 1.05-.687.687-1.05 1.615-1.05 2.625v4.36h.727v-4.32c.04-1.736 1.251-2.947 2.988-2.947m7.106 7.308v-4.36a2.36 2.36 0 0 0-2.382-2.383c-.606 0-1.212.242-1.696.727a2.42 2.42 0 0 0-.727 1.695v.687c0 1.292 1.09 2.382 2.382 2.382.364 0 .848-.08 1.13-.323v-.807c-.282.242-.726.363-1.13.363a1.637 1.637 0 0 1-1.655-1.655v-.687c0-.929.727-1.655 1.655-1.655.929 0 1.656.726 1.656 1.655v4.36zM4 12.787v.243c0 1.292.485 2.503 1.373 3.391a4.74 4.74 0 0 0 3.351 1.373c1.01 0 1.938-.242 2.705-.686.646-.364.929-.767.929-.808v-4.038H8.522v.768h3.069v3.028c-.364.363-1.211.969-2.907.969-1.09 0-2.1-.404-2.827-1.171a4.13 4.13 0 0 1-1.13-2.867v-.242c0-1.05.484-2.06 1.292-2.826.848-.768 1.898-1.212 3.068-1.212 1.05 0 1.817.162 2.383.525v-.848c-.606-.282-1.373-.363-2.383-.363C6.342 8.023 4 10.203 4 12.787m12.92-1.211q.424 0 .727.121c.081-.242.202-.404.323-.646-.201-.161-.686-.242-1.05-.242-1.372 0-2.382 1.01-2.382 2.382v4.36h.727v-4.36c0-.969.687-1.615 1.656-1.615m-5.451-.888v-.889c-.687-.363-1.413-.524-2.383-.524-1.009 0-1.938.363-2.664 1.009s-1.13 1.534-1.13 2.463v.242c0 1.938 1.533 3.513 3.431 3.513 1.534 0 2.18-.525 2.342-.646v-2.261H8.563v.727h1.817v1.13c-.243.081-.727.283-1.656.283a2.56 2.56 0 0 1-1.898-.808 2.72 2.72 0 0 1-.807-1.938v-.242c0-1.494 1.373-2.746 3.028-2.746 1.171 0 1.857.202 2.423.687M29.114 12.1c.323-.323.768-.525 1.212-.525.928 0 1.655.727 1.655 1.655v.687c0 .929-.727 1.655-1.655 1.655-.444 0-.889-.242-1.212-.686a3 3 0 0 1-.524-1.413l-.606.727c.121.565.404 1.09.848 1.493.444.404.969.606 1.494.606a2.387 2.387 0 0 0 2.382-2.382v-.687c0-.605-.242-1.21-.727-1.695a2.42 2.42 0 0 0-1.696-.727c-.403 0-1.01.161-1.776.807-.202.202-.687.687-.97 1.01a39 39 0 0 0-1.776 2.1v1.17a52 52 0 0 1 1.656-2.059c.605-.606 1.292-1.413 1.695-1.736M17.93 13.878c0 .969.404 1.897 1.09 2.584a3.67 3.67 0 0 0 2.584 1.09c.404 0 .848-.08 1.13-.242v-.727a2.85 2.85 0 0 1-1.13.242c-1.574 0-2.947-1.332-2.947-2.947v-.687c0-1.575 1.332-2.947 2.947-2.947.808 0 1.535.323 2.1.848.565.565.848 1.292.848 2.1v4.36h.767V13.07a3.62 3.62 0 0 0-1.13-2.503 3.6 3.6 0 0 0-2.544-1.05c-.97 0-1.898.404-2.584 1.09a3.67 3.67 0 0 0-1.09 2.584v.687zm8.64-2.908c.243-.282.485-.565.727-.807V6.206h-.726zm1.293-1.09V6.246h.727v3.11c-.162.12-.445.322-.727.524"/></g></svg>