<svg xmlns="http://www.w3.org/2000/svg" width="38" height="24" viewBox="0 0 38 24"><title>ideal</title><g fill="none" fill-rule="evenodd"><path fill="#FFF" d="M.977 0h38v24h-38z"/><g fill-rule="nonzero" transform="translate(10.745 4)"><path fill="#000" d="M0 0h9.523c6.463 0 8.94 3.53 8.94 7.982 0 5.34-3.459 8.018-8.94 8.018H0V0Zm.923.923v14.154h8.6c5.192 0 8.017-2.419 8.017-7.095 0-4.805-3.063-7.06-8.017-7.06h-8.6v.001Z"/><path fill="#000" d="M2.077 9.023H4.83v4.899H2.077z"/><circle cx="3.453" cy="6.554" r="1.711" fill="#000"/><path fill="#D50072" d="M10.603 7.355v.793H8.64V4.964h1.9v.794H9.433v.368h1.046v.793H9.434v.436h1.169Zm.343.794.96-3.186h1.128l.96 3.186h-.826l-.18-.617h-1.037l-.18.617h-.825Zm1.237-1.409h.574l-.263-.9h-.048l-.263.9Zm2.21-1.776h.793v2.391h1.175c-.322-4.34-3.735-5.277-6.838-5.277H6.216v2.887h.49c.892 0 1.446.605 1.446 1.58 0 1.004-.54 1.604-1.446 1.604h-.49v5.776h3.307c5.043 0 6.799-2.342 6.86-5.777h-1.99V4.964Zm-8.177.794v1.597h.49c.34 0 .653-.098.653-.811 0-.696-.35-.786-.653-.786h-.49Z"/></g></g></svg>