<svg xmlns="http://www.w3.org/2000/svg" width="38" height="24" viewBox="0 0 38 24"><title>JCB</title><g fill="none" fill-rule="evenodd"><path fill="#FFF" d="M0 0h38v24H0z"/><g fill-rule="nonzero"><g fill="#54B230"><path d="M24.39928132 13.71428571h1.53846154c.04395604 0 .14652014-.01465201.19047619-.01465201.29304029-.05860806.54212454-.32234432.54212454-.68864469 0-.35164835-.24908425-.61538461-.54212454-.68864469-.04395605-.01465201-.13186813-.01465201-.19047619-.01465201h-1.53846154v1.4065934Z"/><path d="M25.76191868 4c-1.46520146 0-2.66666667 1.18681319-2.66666667 2.66666667v2.76923077h3.76556777c.08791209 0 .19047619 0 .26373626.01465201.84981685.04395604 1.47985348.48351648 1.47985348 1.24542125 0 .6007326-.42490842 1.11355311-1.21611721 1.21611721v.02930403c.86446886.05860806 1.52380952.54212454 1.52380952 1.28937729 0 .80586077-.73260073 1.33333337-1.6996337 1.33333337H23.0806v5.4212454h3.91208791c1.46520147 0 2.66666667-1.1868132 2.66666667-2.6666667V4h-3.8974359Z"/><path d="M26.4798674 10.87179487c0-.35164835-.24908425-.58608058-.54212454-.63003663-.02930403 0-.10256411-.01465201-.14652015-.01465201h-1.39194139v1.28937729h1.39194139c.04395604 0 .13186813 0 .14652015-.01465202.29304029-.04395604.54212454-.27838828.54212454-.63003663Z"/></g><path fill="#006CB9" d="M11.02201868 4C9.55681722 4 8.35535201 5.18681319 8.35535201 6.66666667v6.57875458c.74725275.36630036 1.52380953.6007326 2.30036631.6007326.92307692 0 1.42124542-.55677656 1.42124542-1.31868132V9.42124542h2.28571428v3.09157509c0 1.2014652-.74725275 2.18315019-3.28205128 2.18315019-1.53846154 0-2.73992674-.3369963-2.73992674-.3369963v5.6117216h3.91208791c1.46520147 0 2.66666667-1.1868132 2.66666667-2.6666667V4h-3.8974359Z"/><path fill="#E10238" d="M18.3919821 4c-1.46520151 0-2.66666672 1.18681319-2.66666672 2.66666667v3.48717948c.67399268-.57142857 1.84615385-.93772893 3.73626372-.84981685 1.010989.04395605 2.0952381.32234433 2.0952381.32234433v1.12820512c-.5421245-.27838827-1.1868132-.52747252-2.021978-.58608058-1.43589744-.1025641-2.30036631.6007326-2.30036631 1.83150183 0 1.24542125.86446887 1.94871795 2.30036631 1.83150183.8351648-.05860806 1.4798535-.32234432 2.021978-.58608058v1.12820515s-1.0695971.2783883-2.0952381.3223443c-1.89010987.0879121-3.06227104-.2783883-3.73626372-.84981685V20h3.91208792c1.4652015 0 2.6666667-1.1868132 2.6666667-2.6666667V4h-3.9120879Z"/></g></g></svg>