<svg xmlns="http://www.w3.org/2000/svg" width="38" height="24" viewBox="0 0 38 24"><title>Kakao Pay</title><g fill="none" fill-rule="evenodd"><path fill="#FFEB00" d="M0 0h38v24H0z"/><path fill="#1E1E1E" fill-rule="nonzero" d="M8.764 7.285c-2.637 0-4.774 1.68-4.774 3.764 0 1.344.894 2.52 2.238 3.189-.074.252-.47 1.623-.485 1.73 0 0 0 .082.042.11.03611685.01528091.07688315.01528091.113 0 .151-.02 1.74-1.137 2.018-1.332.278.039.558.059.84.059 2.636 0 4.77300035-1.68 4.77300035-3.764C13.53 8.955 11.4 7.285 8.764 7.285Zm10.523.54c-.3718033-.00470806-.7409788.06287788-1.087.199a3.85700289 3.85700289 0 0 0-.584.296l-.096-.34h-1.05v8.498h1.356v-2.253c.121.031.244.053.368.067.215.024.43.036.646.036.4044613.00550998.8049923-.07992751 1.172-.25.3457104-.16449445.6493964-.40559651.888-.705.248-.318.436-.679.554-1.064.133-.436.198-.89.193-1.346 0-.945-.189-1.705-.558-2.261-.37-.556-.995-.877-1.802-.877Zm.983 3.148c0 .708-.143 1.26-.42 1.642-.336.456-.869.62-1.698.512a2.1729985 2.1729985 0 0 1-.323-.067V9.385c.16-.096.333-.174.512-.23.227-.077.464-.117.703-.118.3658017-.03625117.7215732.13316382.924.44.2.328.302.826.302 1.489v.008-.001Zm4.822-3.148c-.3549763.00118037-.7081677.05029078-1.05.146-.35.097-.686.239-1.001.42l-.157.088.436 1.03.198-.093c.242-.112.494-.2.753-.265.26-.068.527-.103.796-.105.2732438-.02550847.5453693.05908082.756.235.157.156.237.441.237.84v.269h-.96c-.802 0-1.423.168-1.849.502-.4537892.37154465-.7012383.93863101-.665 1.524-.0302339.50646706.1466261 1.00347981.49 1.377.3690478.34724434.8639688.52859495 1.37.502.3542724-.00919499.7042086-.0802652 1.034-.21.258-.095.503-.22.73-.372l.085.485h1.077v-4.024c0-.796-.193-1.394-.573-1.776-.38-.382-.955-.573-1.707-.573Zm-.48 5.302c-.1993014.01714476-.3968458-.04870337-.546-.182-.1324222-.15791339-.1974337-.36156822-.181-.567-.0231532-.25710313.0828939-.50891826.283-.672.21-.153.559-.23 1.05-.23h.84v1.101a1.73999895 1.73999895 0 0 1-.246.179c-.2510438.1520668-.5253628.26186193-.812.325-.128.03-.258.045-.389.046h.001Zm8.09-5.351-1.604 4.619-1.585-4.619-1.333.42 2.208 5.807a4.5329982 4.5329982 0 0 1-.564.883c-.25.308-.532.59-.84.84l-.183.15.874.839.14-.097c.48-.331.894-.747 1.224-1.228.366776-.5454981.663125-1.13517218.882-1.755l2.089-5.47-1.308-.389Z"/></g></svg>