<svg xmlns="http://www.w3.org/2000/svg" width="38" height="24" viewBox="0 0 38 24"><title>Klarna</title><g fill="none" fill-rule="evenodd"><path fill="#FEB4C7" d="M0 0h38v24H0z"/><path fill="#17120F" d="M5.509 14.76H4V8h1.509zM9.275 8H7.799a3.92 3.92 0 0 1-1.526 3.133l-.585.45 2.266 3.178h1.863l-2.085-2.924A5.46 5.46 0 0 0 9.275 8m2.406 6.759h-1.425V8h1.425zm4.304-4.675v.3a2.34 2.34 0 0 0-1.348-.429c-1.325 0-2.398 1.104-2.398 2.466s1.073 2.467 2.398 2.467c.5 0 .964-.159 1.348-.428v.299h1.361v-4.675zm-.004 2.338c0 .664-.552 1.202-1.233 1.202-.68 0-1.233-.538-1.233-1.202 0-.665.552-1.203 1.233-1.203s1.233.538 1.233 1.203m14.36-2.039v-.299h1.36v4.675h-1.36v-.3a2.34 2.34 0 0 1-1.349.429c-1.324 0-2.398-1.104-2.398-2.467s1.074-2.466 2.398-2.466c.5 0 .965.158 1.349.428m-1.237 3.241c.68 0 1.233-.538 1.233-1.202 0-.665-.552-1.203-1.233-1.203s-1.233.538-1.233 1.203c0 .664.552 1.202 1.233 1.202m-4.928-3.666c-.544 0-1.058.174-1.402.653v-.526h-1.355v4.674h1.372v-2.457c0-.71.463-1.059 1.021-1.059.598 0 .942.368.942 1.05v2.466h1.359v-2.973c0-1.088-.84-1.828-1.937-1.828m-4.725.126v.609c.273-.365.781-.608 1.334-.608v1.36h-.016c-.539 0-1.315.395-1.315 1.131v2.182h-1.396v-4.674zm12.841 3.895c0-.485.382-.878.854-.878s.854.393.854.878a.866.866 0 0 1-.854.878.866.866 0 0 1-.854-.878"/></g></svg>