<svg xmlns="http://www.w3.org/2000/svg" width="38" height="24" viewBox="0 0 38 24"><title>Link Pay</title><g fill="none" fill-rule="evenodd"><path fill="#FFF" d="M0 0h38v24H0z"/><g fill-rule="nonzero"><path fill="#000" d="M19.124 8.54c0-.473.398-.857.866-.857a.87.87 0 0 1 .866.857c0 .47-.384.866-.866.866a.86.86 0 0 1-.866-.866m-2.57-.736h1.506v8.441h-1.507zm4.198 2.412h-1.52v6.029h1.52zm10.923 2.81c1.143-.704 1.921-1.751 2.229-2.812h-1.52c-.396 1.013-1.304 1.774-2.303 2.098v-4.51h-1.52v8.441h1.52v-2.51c1.16.29 2.076 1.292 2.39 2.51H34c-.233-1.278-1.107-2.474-2.325-3.218m-8.23-2.135c.398-.529 1.173-.836 1.802-.836 1.174 0 2.145.858 2.147 2.154v4.034h-1.52v-3.698c0-.533-.237-1.148-1.006-1.148-.905 0-1.425.802-1.425 1.74v3.11h-1.52V10.22h1.522z"/><path fill="#00D66F" d="M9.024 17.049A5.024 5.024 0 1 0 9.024 7a5.024 5.024 0 0 0 0 10.049"/><path fill="#011E0F" d="M8.793 9.01h-1.55c.302 1.26 1.182 2.337 2.284 3.014-1.104.678-1.982 1.755-2.283 3.015h1.55c.383-1.166 1.446-2.178 2.753-2.385v-1.26c-1.309-.206-2.372-1.219-2.754-2.384"/></g></g></svg>