<svg xmlns="http://www.w3.org/2000/svg" width="38" height="24" viewBox="0 0 38 24"><title>Mastercard</title><g fill="none" fill-rule="evenodd"><path fill="#FFF" d="M0 0h38v24H0z"/><path fill="#ED0006" d="M19.404 17.328A6.84 6.84 0 0 1 14.917 19C11.097 19 8 15.866 8 12s3.097-7 6.917-7c1.712 0 3.279.63 4.487 1.672A6.84 6.84 0 0 1 23.89 5c3.82 0 6.917 3.134 6.917 7s-3.096 7-6.917 7a6.84 6.84 0 0 1-4.486-1.672"/><path fill="#F9A000" d="M19.404 17.328A7.02 7.02 0 0 0 21.834 12a7.02 7.02 0 0 0-2.43-5.328A6.84 6.84 0 0 1 23.89 5c3.82 0 6.917 3.134 6.917 7s-3.096 7-6.917 7a6.84 6.84 0 0 1-4.486-1.672"/><path fill="#FF5E00" d="M19.404 17.328A7.02 7.02 0 0 0 21.834 12a7.02 7.02 0 0 0-2.43-5.328A7.02 7.02 0 0 0 16.974 12c0 2.133.942 4.044 2.43 5.328"/></g></svg>