<svg xmlns="http://www.w3.org/2000/svg" width="38" height="24" viewBox="0 0 38 24"><title>Paypal</title><g fill="none" fill-rule="evenodd"><path fill="#FFF" d="M.023 0h38v24h-38z"/><path fill="#253B80" d="M7.623 8.002H5.29a.325.325 0 0 0-.32.273l-.945 5.986a.194.194 0 0 0 .193.225h1.114c.16 0 .295-.116.32-.274l.255-1.614a.324.324 0 0 1 .32-.275h.739c1.537 0 2.424-.744 2.656-2.218.104-.645.004-1.152-.298-1.507-.332-.39-.92-.596-1.7-.596m.27 2.186c-.128.838-.768.838-1.387.838h-.352l.247-1.565a.195.195 0 0 1 .192-.164h.162c.421 0 .819 0 1.024.24.123.144.16.357.113.651m6.705-.027h-1.117a.195.195 0 0 0-.192.164l-.05.313-.078-.113c-.242-.351-.781-.469-1.32-.469-1.235 0-2.29.936-2.495 2.248-.106.655.045 1.28.417 1.717.34.402.827.569 1.407.569.995 0 1.547-.64 1.547-.64l-.05.31a.194.194 0 0 0 .192.226h1.006c.16 0 .295-.116.32-.274l.605-3.826a.194.194 0 0 0-.192-.225m-1.558 2.176a1.245 1.245 0 0 1-1.26 1.067c-.325 0-.584-.104-.75-.301-.165-.196-.228-.475-.176-.786.101-.633.616-1.076 1.252-1.076.318 0 .576.106.746.305.17.201.238.482.188.79m6.386-2.176h1.123c.158 0 .25.176.16.305l-3.735 5.393a.32.32 0 0 1-.266.14h-1.122a.195.195 0 0 1-.158-.308l1.163-1.642-1.237-3.63a.194.194 0 0 1 .184-.258h1.104c.143 0 .27.094.31.231l.657 2.193 1.55-2.282a.32.32 0 0 1 .267-.142"/><path fill="#179BD7" d="m31.601 14.261.958-6.095A.195.195 0 0 1 32.751 8h1.078c.119 0 .21.107.192.225l-.945 5.986a.324.324 0 0 1-.32.274h-.963a.194.194 0 0 1-.192-.225m-7.334-6.26h-2.334a.324.324 0 0 0-.32.274l-.943 5.986a.194.194 0 0 0 .191.225h1.198a.23.23 0 0 0 .224-.192l.267-1.696a.324.324 0 0 1 .32-.275h.739c1.537 0 2.424-.744 2.656-2.218.105-.645.004-1.152-.298-1.507-.331-.39-.919-.596-1.7-.596m.27 2.187c-.128.838-.768.838-1.387.838h-.352l.248-1.565a.194.194 0 0 1 .192-.164h.161c.421 0 .82 0 1.024.24.123.144.16.357.113.651m6.705-.027h-1.117a.194.194 0 0 0-.192.164l-.05.313-.078-.113c-.242-.352-.78-.469-1.32-.469-1.234 0-2.288.936-2.494 2.248-.106.655.045 1.28.416 1.717.342.402.828.569 1.408.569.995 0 1.546-.64 1.546-.64l-.05.31a.195.195 0 0 0 .193.226h1.006c.16 0 .295-.116.32-.274l.605-3.826a.195.195 0 0 0-.193-.225m-1.558 2.176a1.245 1.245 0 0 1-1.26 1.067c-.324 0-.584-.104-.75-.301-.166-.196-.228-.475-.176-.786a1.25 1.25 0 0 1 1.252-1.076c.317 0 .575.106.745.305.171.201.239.482.19.79"/></g></svg>