<svg xmlns="http://www.w3.org/2000/svg" width="38" height="24" viewBox="0 0 38 24"><title>Paypal</title><g fill="none" fill-rule="evenodd"><path fill="#FFF" d="M0 0h38v24H0z"/><g fill-rule="nonzero"><path fill="#253B80" d="m15.62 20.613.32-2.034-.713-.017h-3.405l2.366-15.01a.195.195 0 0 1 .192-.164h5.742c1.906 0 3.221.396 3.908 1.18.322.367.527.75.626 1.173.105.444.106.973.005 1.62l-.008.047v.413l.322.183q.406.215.652.497c.276.314.454.713.53 1.187.077.487.051 1.066-.076 1.722-.147.754-.385 1.411-.705 1.949a4 4 0 0 1-1.117 1.225 4.5 4.5 0 0 1-1.505.679 7.5 7.5 0 0 1-1.88.217h-.447c-.32 0-.63.115-.874.322-.244.21-.406.498-.455.813l-.034.183-.566 3.585-.025.132c-.007.041-.019.062-.036.076a.1.1 0 0 1-.058.022z"/><path fill="#179BD7" d="M25.28 7.455q-.025.165-.059.337c-.757 3.89-3.347 5.233-6.656 5.233h-1.684a.82.82 0 0 0-.809.693l-.862 5.472-.244 1.55a.43.43 0 0 0 .425.5h2.988a.72.72 0 0 0 .71-.607l.03-.152.562-3.571.036-.196a.72.72 0 0 1 .71-.607h.446c2.895 0 5.161-1.176 5.824-4.578.276-1.421.133-2.608-.599-3.443a2.9 2.9 0 0 0-.818-.63"/><path fill="#222D65" d="M24.488 7.14a6 6 0 0 0-.737-.164 9.4 9.4 0 0 0-1.484-.108h-4.5a.715.715 0 0 0-.71.607l-.958 6.066-.027.177a.82.82 0 0 1 .808-.693h1.685c3.308 0 5.9-1.344 6.656-5.233q.034-.172.059-.336a4 4 0 0 0-.792-.316"/><path fill="#253B80" d="M17.057 7.475a.715.715 0 0 1 .71-.607h4.5q.801-.001 1.484.109.195.03.38.071a6 6 0 0 1 .527.145q.335.11.623.263c.225-1.438-.002-2.416-.779-3.302-.856-.976-2.402-1.393-4.38-1.393h-5.741a.82.82 0 0 0-.811.693L11.178 18.62c-.047.3.184.57.487.57h3.545l.89-5.648z"/></g></g></svg>