<svg xmlns="http://www.w3.org/2000/svg" width="38" height="24" viewBox="0 0 38 24"><title>Paysafe</title><g fill="none" fill-rule="evenodd"><path fill="#5A28FF" d="M0 0h38v24H0z"/><g fill="#FFF" fill-rule="nonzero"><path d="M9.057 12.252a2 2 0 0 0-1.01-.243H5.552v6.188h1.083v-2.374h1.41q.58 0 1.01-.243t.658-.674.228-.988-.228-.99a1.64 1.64 0 0 0-.657-.676m-.31 2.146a.77.77 0 0 1-.303.34.96.96 0 0 1-.514.126H6.636v-1.896H7.93q.456 0 .686.267.23.268.23.683 0 .265-.099.48m9.103-.657-1.814 5.163q-.198.566-.52.83-.323.267-.804.266h-.552v-.862h.475a.48.48 0 0 0 .37-.161c.097-.108.269-.564.312-.71l-1.606-4.526h1.048l1.04 3.196c.07-.262 1.021-3.196 1.021-3.196zm3.173 2.252q.275.285.275.873 0 .407-.209.725t-.56.497q-.354.18-.766.18h-.352a1.9 1.9 0 0 1-.794-.168 1.3 1.3 0 0 1-.582-.487c-.143-.225-.21-.527-.215-.804h.997c.017.18.048.402.17.508.137.12.274.15.432.15h.292a.65.65 0 0 0 .404-.123q.165-.123.164-.385a.46.46 0 0 0-.125-.342q-.124-.122-.383-.17l-.83-.168q-.519-.107-.792-.431-.274-.326-.273-.825 0-.389.202-.698.201-.309.541-.477t.731-.168h.331q.396 0 .735.163.34.164.55.462c.14.199.214.56.22.82h-.972c-.012-.153-.037-.371-.161-.493a.52.52 0 0 0-.39-.157h-.279a.54.54 0 0 0-.361.122.42.42 0 0 0-.142.333q0 .173.118.3a.64.64 0 0 0 .346.178l.847.181q.555.12.83.405m4.26 1.22a.4.4 0 0 1-.051-.223v-1.657q0-.465-.194-.847a1.44 1.44 0 0 0-.558-.599 1.66 1.66 0 0 0-.86-.216h-.314q-.439 0-.817.188a1.6 1.6 0 0 0-.619.532c-.16.23-.226.44-.25.734h1.01c.015-.206.061-.324.19-.442a.7.7 0 0 1 .486-.168h.314q.163 0 .305.1t.223.278.082.4v.089l-1.148.176q-.691.116-1.107.464-.414.35-.415.955 0 .39.179.68.178.292.505.451t.756.16q.46 0 .813-.186t.52-.508q.018.323.204.473.187.15.51.15h.674v-.87q-.193 0-.29-.02a.23.23 0 0 1-.148-.093m-1.053-.864q0 .327-.13.58a.95.95 0 0 1-.37.39q-.24.14-.549.14a.63.63 0 0 1-.43-.146.48.48 0 0 1-.167-.38q0-.292.187-.427t.578-.205l.881-.168zm-10.031.977q-.195 0-.29-.02a.23.23 0 0 1-.149-.093.4.4 0 0 1-.051-.223v-1.657q0-.465-.194-.847a1.44 1.44 0 0 0-.559-.599 1.66 1.66 0 0 0-.86-.216h-.313q-.44 0-.817.188a1.6 1.6 0 0 0-.62.532c-.16.23-.226.44-.249.734h1.01c.015-.206.06-.324.19-.442a.7.7 0 0 1 .486-.168h.313q.164 0 .306.1t.223.278.082.4v.089l-1.148.176q-.691.116-1.107.464-.415.35-.415.955 0 .39.178.68.18.292.506.451t.756.16q.46 0 .813-.186t.52-.508q.017.323.204.473t.51.15h.674zm-1.492-.977q0 .327-.131.58a.95.95 0 0 1-.37.39q-.239.14-.548.14a.63.63 0 0 1-.43-.146.48.48 0 0 1-.167-.38q0-.292.187-.427.186-.135.578-.205l.88-.168zm15.764-1.746h-1.178v3.594h-1.01v-3.594h-.843v-.862h.843v-.42q0-.64.313-.976.314-.336.882-.336h.993v.862h-.688q-.25 0-.37.135t-.12.413v.323h1.178zm3.099-.645a1.54 1.54 0 0 0-.911-.287h-.331q-.482 0-.914.28-.431.281-.698.807t-.267 1.198c0 .448.082.843.247 1.195q.247.53.684.822.435.294.965.294h.318a1.74 1.74 0 0 0 1.457-.762q.246-.356.288-.794h-.963a.87.87 0 0 1-.268.489.72.72 0 0 1-.506.196h-.318a.67.67 0 0 1-.453-.179 1.2 1.2 0 0 1-.325-.512 2 2 0 0 1-.108-.51h2.963c.003-.032.017-.282.017-.385q0-.584-.237-1.075a2 2 0 0 0-.64-.777m-2.065 1.472a2 2 0 0 1 .079-.265q.129-.332.337-.504a.68.68 0 0 1 .437-.172h.3q.202 0 .379.123a.87.87 0 0 1 .281.343q.106.219.114.475zM23.969 7.294l-3.003 3.087a.06.06 0 0 1-.044.02h-.02a.064.064 0 0 1-.063-.066V7.202a.13.13 0 0 1-.037.092l-2.984 3.068a.127.127 0 0 1-.183 0l-2.983-3.068a.13.13 0 0 1-.037-.092q0-.058.037-.096l2.983-3.068a.13.13 0 0 1 .09-.038q.057.001.093.038l2.984 3.068a.13.13 0 0 1 .037.092V4.065c0-.036.028-.065.063-.065h.02q.025 0 .044.02l3.002 3.086a.13.13 0 0 1 .037.092.13.13 0 0 1-.036.096"/></g></g></svg>