<svg xmlns="http://www.w3.org/2000/svg" width="38" height="24" viewBox="0 0 38 24"><title>Paysafe Card</title><g fill="none" fill-rule="evenodd"><path fill="#FFF" d="M0 0h38v24H0z"/><g fill="#3200FF" fill-rule="nonzero"><path d="M9.4026 11.72917c-.00296-.1036-.05328-.1569-.14801-.15985H8.7454c-.12137.00592-.18354.074-.1865.19834v.91474c.00296.1273.07105.19242.20426.19834h.46478c.04736 0 .0888-.01776.12137-.05328.03256-.02665.05032-.06217.05032-.10657l.00297-.99172Zm-1.49496-.13025c.00296-.22795.05328-.4026.15393-.52102.05033-.05032.11546-.09177.19539-.1273.08289-.03552.15985-.05328.23682-.05328h.9325c.4115.00296.62168.22795.6276.67496v1.37655c-.00296.15986-.06513.29603-.1865.41149-.11842.12137-.26051.18354-.4263.1865h-.88217v.9917h-.65127v-2.9396m3.32741 1.14565c0 .03848.01776.06809.05329.09177.0296.02664.07104.04144.11841.04144h.5003c.11249 0 .1717-.0444.17466-.13321v-.1865c0-.10361-.05921-.15394-.18059-.15394h-.49733c-.06513 0-.10953.01184-.13618.03256-.02368.02369-.03552.07105-.03552.1421l.00296.16578Zm.84962-1.03316c.00296-.10065-.05625-.14801-.17466-.14505h-1.3144v-.66904h1.48017c.43221.00592.65128.2161.6572.6276v1.40319c-.00296.17762-.0592.32267-.16282.44109-.10953.12137-.25163.18058-.42629.18058h-.89402c-.43517-.00296-.6572-.2013-.66311-.59799v-.54174c.00296-.41445.21314-.62463.6335-.63055h.86739l-.00296-.06809m2.48075 2.15808c.05033-.00296.0977-.02072.13322-.05624.03552-.03257.05328-.06809.05328-.10657v-.15986h-.8348c-.10954 0-.1954-.0148-.26052-.04145-.06809-.02368-.13617-.07104-.20722-.13913-.06513-.07105-.1125-.14506-.1421-.22203-.0296-.07105-.0444-.15986-.0444-.26939v-1.9775h.65423v1.76732c0 .1421.0592.21314.17466.21314h.46181c.05625 0 .10361-.01776.1421-.05328.03848-.03257.05624-.0681.05624-.1125v-1.81468h.64832v2.92185c-.00296.2161-.05921.39076-.16578.52102-.10953.13025-.25755.19834-.44701.2013h-1.52457v-.672h1.30254m1.34695-.9917h1.16341c.10658-.00297.16282-.04737.16578-.1273v-.0592c0-.01777-.00592-.03553-.0148-.05625-.02664-.05033-.0592-.07697-.09473-.07697h-.58022c-.1717-.00296-.31676-.06217-.4411-.17762-.12433-.10657-.1865-.23387-.19242-.3878v-.5003c.00593-.39077.21907-.5891.63648-.59503h1.3499v.672H16.762c-.13322 0-.2013.04144-.2013.12433v.06513c0 .08585.06808.1273.20722.1273h.5743c.15394.00295.2842.06216.39373.17761.10953.11545.16578.25163.1717.41149v.48845c-.00296.13618-.06809.27531-.18946.41149-.05921.06809-.12138.1125-.18058.13913-.06217.02369-.14802.03553-.25755.03553h-1.36472l-.00296-.672m3.11131-.13321c0 .03848.01776.06809.05329.09177.0296.02664.06809.04144.11841.04144h.50326c.1125 0 .1717-.0444.17466-.13321v-.1865c0-.10361-.0592-.15394-.18058-.15394h-.49734c-.06513 0-.10953.01184-.13617.03256-.02369.02369-.03553.07105-.03553.1421v.16578Zm.84962-1.03316c.00296-.10065-.05625-.14801-.17762-.14505h-1.31439v-.66904h1.48017c.4322.00592.65127.2161.65719.6276v1.40319c-.00296.17762-.0592.32267-.16282.44109-.10953.12137-.25163.18058-.42629.18058h-.89698c-.43517-.00296-.65719-.2013-.66311-.59799v-.54174c.00296-.41445.21314-.62463.63351-.63055h.87034v-.06809m1.17821-1.19597c.00296-.18058.07105-.32564.2013-.43517.1273-.10953.29308-.16874.5003-.1717h.41444v.64831h-.25162c-.13914.00296-.20723.0681-.21019.19835v.1421h.46181v.67199h-.4618v1.98046h-.65424v-3.03434m2.97217 1.18413v-.0148c0-.03552-.0148-.06513-.04144-.08585-.0296-.02072-.06809-.03256-.1125-.03256h-.45589c-.0592 0-.10657.01776-.1421.05032-.0444.0296-.06808.07105-.06808.12138v.26939l.82001-.30788Zm-.80817.95027v.04144c0 .05329.0148.0977.04145.1273.02072.03848.04736.0592.08585.0592h1.34103v.672h-1.42688c-.13026 0-.2309-.01184-.30196-.03553-.07697-.02664-.14801-.06808-.21018-.12729-.07105-.07105-.12137-.1421-.14506-.21906-.02664-.07697-.04144-.18058-.04144-.30788l-.00592-1.34399c.00592-.40556.21906-.61279.63647-.6187h.88218c.40556.00591.61279.22202.6187.64238v.5299l-1.47424.58023m2.85672.89994c-.09769 0-.18946-.00888-.27235-.02664-.08585-.0148-.1717-.0533-.25755-.12138-.0888-.07697-.15097-.16578-.1865-.26347-.03552-.09473-.05328-.20426-.05328-.32267V11.5634c-.00296-.10066.00592-.19243.0296-.2694.02072-.07696.06809-.15393.13913-.22794.07993-.07697.15986-.13025.24571-.1569.0829-.02072.17466-.03256.27827-.03256h1.0006v.1569h-.97691c-.1717 0-.30788.03552-.40853.10657-.10065.07697-.15394.21018-.15394.39964v1.25222c0 .08881.0148.17466.04145.25755.02664.07993.074.15394.13913.2161.07105.0533.1421.08882.21019.10066a1.12897 1.12897 0 0 0 .2309.02368h.9325v.1569h-.93842m3.49911-1.62226h-1.31142c-.1569.00296-.28123.05328-.37004.14505-.09177.09473-.13618.22499-.13618.39077v.39964c0 .07697.00888.14802.02368.21314.01777.0681.05625.1273.12138.17762.11249.09474.23978.13914.37596.13914h.79929c.33156-.00296.5003-.17762.5003-.52694l-.00297-.93842Zm.1569.9029c0 .10065-.00888.18946-.02072.26643-.02072.08585-.06513.16578-.13026.24274-.13617.14506-.30787.2161-.50917.21019h-.78153c-.20426 0-.36708-.0592-.49438-.18058-.13025-.11842-.19538-.2842-.19538-.49734v-.4026c.00592-.4559.23387-.68976.68088-.69864h1.29958v-.17762c0-.14506-.04144-.27235-.12729-.38188-.05329-.07105-.11545-.11842-.1865-.1421-.07105-.01776-.15394-.0296-.24275-.0296h-1.418v-.1569h1.344c.12433 0 .23386.00888.33451.02664.05033.00888.0977.0296.1421.0592.04736.02665.0888.0681.1273.12138.12137.1569.18057.33452.17761.53582v1.20486m1.46833-1.791c-.36412.00592-.5447.20426-.53582.59502v1.91534h-.1569v-1.91238c-.00888-.50325.2309-.75488.71936-.75488h.17466v.1569h-.2013m2.64357 0h-1.23742c-.0888 0-.16874.00888-.23978.0296-.07401.01776-.14802.06217-.2161.13618-.06513.06808-.10658.13617-.12434.2013-.02368.06809-.03257.14801-.0296.24275v1.22261c0 .20426.0592.34044.17762.41445.0592.03552.12433.0592.19538.07697.07104.01776.15393.0296.23978.0296h.54174c.2013 0 .36709-.04736.49438-.13914.1273-.0888.19242-.23978.19834-.45589v-1.75843Zm.1569 1.77027c-.0148.50622-.28123.75489-.80225.74305h-.58023a1.83027 1.83027 0 0 1-.3286-.0296c-.10064-.02665-.19537-.08585-.28714-.18059-.0681-.08584-.1125-.1717-.13026-.2605-.02368-.08881-.03552-.1865-.0296-.29308V11.6463c.00592-.51214.26643-.7697.7756-.76377h1.22854v-.86738H34v2.7916M4.28123 10.79667c.05033-.02368.10361-.04144.15394-.05033.09473-.44997.49437-.78744.97099-.78744.47957 0 .87626.33747.97099.78744.14801.02665.26939.08585.36116.17466.00296-.08585 0-.16874-.00888-.24866-.05921-.68088-.63055-1.21374-1.32623-1.21374-.7164 0-1.29959.56838-1.3292 1.2759-.00295.06217-.00591.12434-.00295.19242.0592-.05032.1273-.09473.21018-.13025"/><path d="M6.18176 10.89732H4.58615c-.07697 0-.1569.01776-.23683.05329-.07993.03552-.14506.07697-.19538.1273-.0977.1184-.15098.29306-.15394.52101v1.2463c.00296.22794.05329.4026.15394.52102.05328.05032.11545.09177.19538.1273.08289.03552.16282.05328.23683.05328h1.59561c.41149-.00296.62167-.2309.6276-.67792v-1.29662c-.00593-.44701-.21611-.672-.6276-.67496"/></g></g></svg>