<svg xmlns="http://www.w3.org/2000/svg" width="38" height="24" viewBox="0 0 38 24"><title>Pix</title><g fill="none" fill-rule="evenodd"><path fill="#FFF" d="M0 0h38v24H0z"/><path fill="#939598" d="M18.372 8.92c-1.027 0-1.847.8-1.847 1.774v5.879a.185.185 0 1 1-.368 0v-5.88c0-1.19.997-2.142 2.215-2.142l1.8.002c1.213.003 2.208.954 2.208 2.14v1.252c0 1.19-.999 2.143-2.216 2.143h-2.543a.185.185 0 0 1 0-.37h2.543c1.027 0 1.847-.8 1.847-1.773v-1.252c0-.97-.817-1.768-1.84-1.77zm4.142-.185c0-.102.082-.185.185-.185h.78c.268 0 .526.102.718.288a.97.97 0 0 1 .299.7v4.39a.185.185 0 1 1-.367 0v-4.39a.6.6 0 0 0-.188-.436.67.67 0 0 0-.462-.183h-.78a.185.185 0 0 1-.185-.185z"/><path fill="#32BCAD" fill-rule="nonzero" d="m24.145 8.054-.354-.341a.211.211 0 0 1 0-.308l.354-.34a.23.23 0 0 1 .318 0l.354.34c.042.041.066.097.066.155a.21.21 0 0 1-.066.153l-.354.341a.232.232 0 0 1-.319 0"/><path stroke="#939598" stroke-linecap="round" stroke-linejoin="round" stroke-width=".432" d="M25.81 8.73h.775c.398 0 .78.153 1.061.425l1.811 1.746a.62.62 0 0 0 .85 0l1.805-1.74a1.53 1.53 0 0 1 1.061-.424h.63"/><path fill="#939598" d="M29.883 11.735a.44.44 0 0 0-.297.118L27.774 13.6a1.72 1.72 0 0 1-1.19.476h-.773a.185.185 0 1 1 0-.37h.774c.347.002.682-.131.933-.372l1.811-1.746a.79.79 0 0 1 .553-.222c.206 0 .404.08.553.222m0 0 1.805 1.74c.246.238.582.373.933.373h.63a.185.185 0 1 1 0 .368h-.63c-.444 0-.873-.17-1.19-.476l-1.804-1.74a.42.42 0 0 0-.297-.118"/><path fill="#32BCAD" fill-rule="nonzero" d="M11.724 15.007c-.388 0-.753-.145-1.029-.41L9.21 13.164a.29.29 0 0 0-.39 0L7.33 14.6a1.492 1.492 0 0 1-1.03.41l-.292.001 1.881 1.815a1.544 1.544 0 0 0 2.128 0l1.887-1.82zM6.3 9.94c.388 0 .754.145 1.029.41l1.49 1.438c.11.105.282.105.39 0l1.486-1.432a1.46 1.46 0 0 1 1.029-.411h.18l-1.888-1.82a1.544 1.544 0 0 0-2.128 0L6.007 9.94z"/><path fill="#32BCAD" fill-rule="nonzero" d="m13.464 11.45-1.14-1.1a.2.2 0 0 1-.081.015h-.519c-.27 0-.528.104-.72.288l-1.486 1.432a.734.734 0 0 1-1.008 0L7.02 10.65a1.04 1.04 0 0 0-.72-.288h-.638a.2.2 0 0 1-.077-.015L4.441 11.45a1.415 1.415 0 0 0 0 2.052l1.144 1.104a.2.2 0 0 1 .077-.015H6.3c.27 0 .528-.104.72-.288l1.49-1.438a.75.75 0 0 1 1.008 0l1.487 1.433c.191.184.45.287.719.288h.519q.044 0 .08.016l1.141-1.1a1.415 1.415 0 0 0 0-2.052"/></g></svg>