<svg xmlns="http://www.w3.org/2000/svg" width="38" height="24" viewBox="0 0 38 24"><title>Samsung Pay</title><g fill="none" fill-rule="evenodd"><path fill="#FFF" d="M0 0h38v24H0z"/><path fill="#000" fill-rule="nonzero" d="m28.7734 6.052.05793 3.3647h-.02317l-.98571-3.36364h-1.5902v4.24193h1.0531l-.05897-3.48159h.02317l1.05838 3.4816h1.52701V6.052m-21.24443 0-.7951 4.28617H8.9549l.58659-3.88914h.02316l.57184 3.88914h1.1521L10.49876 6.052m4.57051 0-.52972 3.27834h-.02316l-.52867-3.27728h-1.74816l-.09478 4.28616h1.07207l.02738-3.85439h.02422l.71611 3.8544h1.08787l.71612-3.85334h.02316l.02738 3.85228h1.07207L16.81637 6.052M5.99143 9.1292c.04213.10426.02844.2359.00843.31698-.03475.14323-.1327.28856-.41703.28856-.2696 0-.43178-.15481-.43178-.38965v-.41493H4v.33173c0 .95517.75298 1.24478 1.5586 1.24478.77615 0 1.41328-.26433 1.51649-.98045.0516-.36964.01263-.61291-.00632-.70242-.18008-.89726-1.80714-1.1658-1.92825-1.66708a.56341.56341 0 0 1-.00527-.22537c.0316-.13795.12427-.28855.39282-.28855.25064 0 .39702.15586.39702.3886v.26644H6.9961v-.30225c0-.9341-.83933-1.08049-1.44592-1.08049-.76245 0-1.38484.25275-1.49963.95201-.0316.19167-.03475.36227.01053.57816.18535.8762 1.7092 1.12894 1.93035 1.68498V9.1292Zm13.939-.00737a.54762.54762 0 0 1 .00842.31277c-.03475.14217-.13164.28645-.41387.28645-.26539 0-.42651-.15376-.42651-.3865v-.4107H17.959v.32856c0 .9457.7456 1.23214 1.5428 1.23214.76773 0 1.3996-.26222 1.5007-.97097a2.05778 2.05778 0 0 0-.00527-.69505c-.17903-.88988-1.7903-1.15421-1.9093-1.65128a.53709.53709 0 0 1-.00526-.2222c.03054-.13691.12216-.2854.38754-.2854.2496 0 .39492.1527.39492.38439v.26327h1.05943v-.29908c0-.92463-.8309-1.06786-1.43223-1.06786-.75298 0-1.37115.24854-1.48278.94149-.0316.18956-.03475.35805.01053.57184.18324.86776 1.69235 1.11735 1.91034 1.66813Zm3.59953.57394c.29803 0 .38965-.2043.41071-.30961a.90463.90463 0 0 0 .01054-.16429V6.052h1.0847V9.125c.0021.07898-.00737.2401-.01053.28118-.07477.80036-.7077 1.06048-1.49542 1.06048-.78983 0-1.4217-.26012-1.49647-1.06048a3.68481 3.68481 0 0 1-.00948-.28118V6.052h1.0847v3.16987c-.0021.05582 0 .11795.00948.16429.02107.1053.11374.31067.41072.31067l.00105-.00106ZM32.473 9.6526c.30961 0 .41703-.19693.43704-.31066a.83302.83302 0 0 0 .01053-.16324V8.5563h-.4402v-.6245H34v1.1479c0 .0811-.0021.14007-.0158.28224-.0716.7814-.7477 1.06048-1.50805 1.06048-.76035 0-1.43645-.27908-1.507-1.06048a2.73286 2.73286 0 0 1-.0158-.28119V7.27677c0-.07582.00948-.21062.01895-.28223.09478-.80037.7435-1.05943 1.50385-1.05943.76034 0 1.42696.2559 1.50595 1.05943.01369.1369.00842.28223.00948.28223V7.42h-1.08155v-.24011s0-.10215-.0137-.16429c-.01895-.09372-.10109-.31067-.4286-.31067-.31068 0-.40335.20641-.42757.31067a1.06575 1.06575 0 0 0-.0158.20325V9.1787c0 .05477 0 .1148.00948.16324.02106.11373.12743.31066.4381.31066h.00105ZM4 13.01097h1.56914c.94885 0 1.65233.7277 1.65233 1.63232 0 .91094-.70348 1.63864-1.65865 1.63864h-.70875v1.31218H4v-4.58314Zm.85302.79089v1.68919h.65293a.8267.8267 0 0 0 .85513-.84776.82459.82459 0 0 0-.85408-.84143m1.8777 1.95984c0-1.2195.89093-1.91667 1.82083-1.91667.48443 0 .91621.2022 1.17949.51603v-.43915h.8488v3.6722h-.84775v-.47706a1.5228 1.5228 0 0 1-1.19212.55289c-.88567 0-1.80925-.7098-1.80925-1.9093v.00106Zm3.0456-.0137c0-.62133-.47074-1.12998-1.09945-1.12998-.6266 0-1.11103.49601-1.11103 1.12999 0 .64029.48443 1.14262 1.11103 1.14262.62871 0 1.09945-.50865 1.09945-1.14262Zm2.5875 1.66392-1.507-3.49001h.90356l1.02363 2.4727.96676-2.4727h.89198l-2.19047 5.36771h-.8604"/></g></svg>