<svg xmlns="http://www.w3.org/2000/svg" width="38" height="24" viewBox="0 0 38 24"><title>Shop Pay</title><g fill="none" fill-rule="evenodd"><path fill="#5A31F4" d="M0 0h38v24H0z"/><path fill="#FFF" fill-rule="nonzero" d="M21.544 10.533c0 1.778-1.246 3.047-2.987 3.047h-1.64a.137.137 0 0 0-.138.138v2.337a.14.14 0 0 1-.137.138h-1.148a.14.14 0 0 1-.138-.138v-8.43a.13.13 0 0 1 .04-.098.14.14 0 0 1 .097-.04h3.071c1.734-.003 2.98 1.266 2.98 3.046m-1.432 0c0-1.022-.696-1.769-1.641-1.769h-1.554a.137.137 0 0 0-.138.139v3.253a.14.14 0 0 0 .138.138h1.554c.945.007 1.641-.741 1.641-1.76m1.772 4.043a1.64 1.64 0 0 1 .685-1.405c.447-.337 1.147-.511 2.175-.547l1.094-.04v-.322c0-.648-.433-.921-1.13-.921s-1.139.247-1.24.65a.135.135 0 0 1-.132.097h-1.081a.136.136 0 0 1-.138-.157c.16-.958.957-1.685 2.64-1.685 1.791 0 2.438.834 2.438 2.427v3.382a.14.14 0 0 1-.14.138h-1.09a.14.14 0 0 1-.097-.04.14.14 0 0 1-.04-.098v-.252a.11.11 0 0 0-.065-.098.1.1 0 0 0-.114.025c-.327.356-.855.612-1.7.612-1.244 0-2.065-.647-2.065-1.766m3.954-.734v-.262l-1.417.075c-.747.038-1.181.348-1.181.871 0 .473.398.735 1.094.735.946 0 1.504-.511 1.504-1.419m2.451 4.906v-.98a.14.14 0 0 1 .167-.136q.251.048.507.048a1.306 1.306 0 0 0 1.318-.934l.071-.226a.15.15 0 0 0 0-.093l-2.27-5.835a.14.14 0 0 1 .064-.174.14.14 0 0 1 .065-.017h1.1q.044.001.08.025a.14.14 0 0 1 .05.066l1.542 4.114a.14.14 0 0 0 .132.094.14.14 0 0 0 .133-.094l1.339-4.103a.14.14 0 0 1 .133-.096h1.14a.14.14 0 0 1 .115.061.14.14 0 0 1 .016.13l-2.43 6.48c-.558 1.506-1.517 1.89-2.573 1.89q-.301.008-.594-.07a.14.14 0 0 1-.105-.15M7.98 7a5.66 5.66 0 0 0-3.9 1.522.25.25 0 0 0-.03.33l.654.895a.25.25 0 0 0 .292.09.25.25 0 0 0 .09-.06 4.05 4.05 0 0 1 2.9-1.185c2.244 0 3.417 1.69 3.417 3.36 0 1.814-1.232 3.09-3.003 3.115-1.368 0-2.399-.907-2.399-2.105a2.05 2.05 0 0 1 .756-1.579.246.246 0 0 0 .034-.344l-.688-.87a.25.25 0 0 0-.357-.036 3.64 3.64 0 0 0-1.355 2.83c0 2.062 1.753 3.68 3.997 3.693h.03c2.666-.034 4.593-2.01 4.593-4.708C13.01 9.552 11.246 7 7.98 7z"/></g></svg>