<svg xmlns="http://www.w3.org/2000/svg" width="38" height="24" viewBox="0 0 38 24"><title>Skrill</title><g fill="none" fill-rule="evenodd"><path fill="#FFF" d="M0 0h38v24H0z"/><path fill="#862165" d="M25.55 7c-.68 0-1.232.549-1.232 1.225 0 .677.552 1.225 1.231 1.225.68 0 1.232-.548 1.232-1.225C26.78 7.55 26.229 7 25.549 7M7.796 11.106c-.316-.02-1.046-.068-1.046-.723 0-.79 1.051-.79 1.446-.79.694 0 1.592.204 2.235.396 0 0 .357.125.662.253l.028.008V8.087l-.038-.012c-.758-.264-1.639-.517-3.271-.517C4.998 7.558 4 9.188 4 10.588c0 .806.347 2.703 3.57 2.922h.003c.276.017.997.06.997.735 0 .559-.594.887-1.593.887a7.9 7.9 0 0 1-2.801-.54v2.227c.966.253 2.054.378 3.33.378 2.752 0 3.985-1.544 3.985-3.074 0-1.735-1.38-2.863-3.694-3.017m8.308-.962.013-.033h2.947c-.084.267-.61 1.879-1.808 3.392 0 0 1.335 2.329 1.64 3.592h-3.086s-.369-1.677-1.115-2.792v2.792h-2.577v-9.03l2.577-.507v4.982a8.6 8.6 0 0 0 1.41-2.396m15.397 6.95V8.003L34 7.558v9.537zm-8.61-7.077c-2.306.074-3.479 1.105-3.479 3.154v3.924h2.518v-3.2c0-1.227.162-1.753 1.624-1.803v-2.039c-.246-.052-.662-.036-.662-.036m1.41 7.078V10.12h2.497v6.976zm3.555-9.093 2.496-.444v9.537h-2.496z"/></g></svg>