<svg xmlns="http://www.w3.org/2000/svg" width="38" height="24" viewBox="0 0 38 24"><title>Stripe</title><g fill="none" fill-rule="evenodd"><path fill="#FFF" d="M0 0h38v24H0z"/><path fill="#6461FC" d="m20.242 7.688-2.092.448V6.441L20.242 6zm-8.5-.724-2.034.433-.008 6.658c0 1.23.925 2.137 2.158 2.137.684 0 1.184-.125 1.459-.275V14.23c-.267.108-1.584.49-1.584-.74v-2.951h1.584v-1.77h-1.584zm-4.925 3.467c-.442 0-.709.125-.709.449 0 .354.46.51 1.029.703.928.315 2.15.73 2.155 2.264 0 1.489-1.192 2.345-2.925 2.345-.717 0-1.5-.142-2.275-.474v-1.979c.7.383 1.583.665 2.275.665.466 0 .8-.124.8-.507 0-.392-.498-.571-1.098-.787C5.154 12.78 4 12.364 4 10.98c0-1.472 1.125-2.353 2.817-2.353.691 0 1.375.108 2.066.382v1.954a4.66 4.66 0 0 0-2.066-.532m9.091-1.048-.133-.615h-1.8v7.274h2.083v-4.93c.492-.64 1.325-.523 1.584-.432V8.768c-.267-.1-1.242-.282-1.734.615m2.242-.615h2.092v7.274H18.15zM34 12.434c0-2.128-1.033-3.807-3.008-3.807-1.984 0-3.184 1.68-3.184 3.79 0 2.503 1.417 3.766 3.45 3.766.992 0 1.742-.224 2.309-.54v-1.662c-.567.282-1.217.457-2.042.457-.808 0-1.525-.283-1.617-1.264h4.075l.007-.27c.004-.163.01-.355.01-.47m-4.117-.79c0-.939.575-1.33 1.1-1.33.509 0 1.05.391 1.05 1.33zm-6.925-2.369a2.36 2.36 0 0 1 1.634-.648c1.458 0 2.833 1.313 2.841 3.724 0 2.635-1.358 3.832-2.85 3.832-.733 0-1.175-.307-1.475-.523l-.008 2.352-2.084.44V8.76h1.834zm.15 4.689c.2.216.492.39.983.39.767 0 1.284-.83 1.284-1.945 0-1.089-.525-1.937-1.284-1.937-.474 0-.774.167-.991.408z"/></g></svg>