<svg xmlns="http://www.w3.org/2000/svg" width="38" height="24" viewBox="0 0 38 24"><title>Tabby</title><g fill="none" fill-rule="evenodd"><path fill="#3FFCBB" d="M0 0h38v24H0z"/><g fill="#000" fill-rule="nonzero"><path d="m32.463 9.17-1.97 7.524-.005.017h1.534L34 9.17zM8.08 13.452c-.23.114-.484.172-.74.171-.553 0-.867-.088-.9-.535v-.03c0-.018-.003-.033-.003-.054v-1.3l.002-.154v-.917h-.002v-.39l.002-.155v-.885l-1.37.18c.927-.179 1.459-.912 1.459-1.644v-.45h-1.54v2.106L4.9 9.42v3.9c.051 1.097.773 1.748 1.958 1.748.42 0 .88-.095 1.233-.256l.008-.003v-1.368z"/><path d="M8.323 8.887 4 9.554v1.096l4.323-.667zM8.323 10.49 4 11.158v1.047l4.323-.666zM13.174 10.995c-.061-1.218-.822-1.94-2.062-1.94-.713 0-1.3.276-1.699.797s-.608 1.283-.608 2.21c0 .926.21 1.69.608 2.21.397.518.986.796 1.7.796 1.239 0 2-.726 2.061-1.95v1.835h1.538V9.184l-1.538.238zm.08 1.068c0 1.078-.566 1.775-1.442 1.775-.903 0-1.443-.663-1.443-1.775-.001-1.118.538-1.787 1.442-1.787.439 0 .806.171 1.061.495.25.316.381.763.381 1.29zM19.206 9.056c-1.24 0-2.002.722-2.062 1.94V7.505l-1.54.238v7.211h1.54v-1.835c.06 1.226.821 1.952 2.062 1.952 1.451 0 2.318-1.124 2.318-3.007 0-1.882-.867-3.007-2.318-3.007m-.7 4.781c-.876 0-1.442-.697-1.442-1.775 0-.528.131-.975.38-1.292.256-.323.623-.495 1.062-.495.903 0 1.443.67 1.443 1.787 0 1.112-.54 1.775-1.443 1.775M25.718 9.056c-1.24 0-2.001.722-2.062 1.94V7.505l-1.54.238v7.211h1.54v-1.835c.06 1.226.822 1.952 2.062 1.952 1.451 0 2.318-1.124 2.318-3.007 0-1.882-.867-3.007-2.318-3.007m-.7 4.781c-.876 0-1.442-.697-1.442-1.775 0-.528.132-.975.381-1.292.255-.323.622-.495 1.062-.495.902 0 1.442.67 1.442 1.787 0 1.112-.539 1.775-1.442 1.775M28.04 9.17h1.644l1.336 5.772h-1.474z"/></g></g></svg>