<svg xmlns="http://www.w3.org/2000/svg" width="38" height="24" viewBox="0 0 38 24"><title>Trustly</title><g fill="none" fill-rule="evenodd"><path fill="#0EE06E" d="M0 0h38v24H0z"/><path fill="#000" fill-rule="nonzero" d="M9.494 18.688v-4.144H8v-.909h3.972v.909h-1.494v4.144zm2.368 0v-3.67h.913v.581c.237-.49.535-.58.853-.58h.359v.918h-.313c-.465 0-.873.268-.873 1.08v1.666h-.938zM14.5 17.36v-2.337h.938v2.115c0 .47.243.782.671.782.414 0 .722-.313.722-.778v-2.125h.944v3.67h-.908v-.465c-.237.368-.6.544-1.06.544-.771.002-1.307-.514-1.307-1.406m3.77.288.828-.187c.04.322.303.54.742.54.359 0 .565-.151.565-.348 0-.162-.096-.268-.444-.353l-.596-.137c-.696-.162-1.025-.49-1.025-1.1 0-.621.52-1.116 1.47-1.116 1.003 0 1.418.596 1.473 1.025l-.827.182c-.04-.228-.213-.47-.666-.47-.298 0-.52.137-.52.334 0 .172.131.268.334.318l.807.192c.63.15.934.52.934 1.06 0 .59-.48 1.17-1.5 1.17-1.11 0-1.524-.662-1.575-1.11m5.013 1.039c-.631 0-1.03-.36-1.03-1.03v-1.823h-.61v-.817h.61v-.837l.938-.268v1.105h.747v.819h-.747v1.66c0 .268.131.374.403.374h.41v.818zm1.333 0v-5.053h.938v5.053zm4.047-3.67h1.01L28.124 20h-1.01l.43-1.312h-.51l-1.045-3.67H27l.797 2.888zM13.66 7.397h3.618V4.51l2.888 2.887-2.888 2.887v1.473h3.503v-4.36h3.221V4H13.66z"/></g></svg>