<svg xmlns="http://www.w3.org/2000/svg" width="38" height="24" viewBox="0 0 38 24"><title>Twint</title><g fill="none" fill-rule="evenodd"><path fill="#000" d="M0 0h38v24H0z"/><g fill-rule="nonzero"><path fill="#FFF" d="M12.53 14.09a.44.44 0 0 1-.198.345l-3.867 2.233a.44.44 0 0 1-.399 0l-3.868-2.233A.44.44 0 0 1 4 14.09V9.625a.44.44 0 0 1 .198-.344l3.868-2.234a.44.44 0 0 1 .399 0l3.867 2.234a.44.44 0 0 1 .199.344zM34 9.948h-3.465v.822h1.242v3.536h.98V10.77H34v-.823m-15.728-.001h-3.465v.822h1.243v3.536h.98v-3.536h1.242v-.823m10.022-.14c-1.09 0-1.696.696-1.696 1.701v2.797h.968v-2.816c0-.438.26-.775.738-.775s.735.4.735.775v2.818h.969V11.51c0-1.006-.628-1.7-1.716-1.7h.002zm-3.66.14h.973v4.358h-.973zm-3.284 1.725.032.194.91 2.439h.396l1.24-4.36h-.959l-.59 2.29-.035.246-.048-.245-.788-2.29h-.316l-.79 2.29-.047.245-.035-.245-.59-2.29h-.958l1.239 4.359h.396l.91-2.439z"/><path fill="#FF4800" d="m10.28 11.869-1.008 1.478-.516-.791.596-.89c.111-.16.347-.596.074-1.191a1.241 1.241 0 0 0-2.248 0c-.195.373-.168.823.068 1.171l.608.897.446.645.676 1.032c.067.102.179.165.3.171.18 0 .29-.161.305-.18l1.58-2.341zm-1.985.038s-.264-.4-.435-.68a.501.501 0 1 1 .871 0c-.168.28-.431.68-.431.68z"/><path fill="#007CE2" d="m7.325 13.3-.99-1.391s-.264-.402-.435-.682a.498.498 0 0 1 .431-.747h.004q.075 0 .145.02l.35-.64a1.24 1.24 0 0 0-1.615.614c-.195.373-.169.824.068 1.172l1.73 2.566c.015.023.126.184.31.184a.39.39 0 0 0 .303-.18l.523-.797-.449-.662z"/></g></g></svg>