<svg xmlns="http://www.w3.org/2000/svg" width="38" height="24" viewBox="0 0 38 24"><title>Union Pay</title><g fill="none" fill-rule="evenodd"><path fill="#FFF" d="M0 0h38v24H0z"/><g fill-rule="nonzero"><path fill="#E21836" d="M16.906 0c1.337 0 2.169 1.09 1.857 2.43l-4.459 19.143C13.99 22.909 12.651 24 11.314 24H0V0z"/><path fill="#00447C" d="M16.11 0h11.012c1.337 0 .734 1.09.42 2.43l-4.458 19.143C22.77 22.909 22.869 24 21.529 24H10.517c-1.34 0-2.169-1.09-1.854-2.427L13.121 2.43C13.437 1.09 14.772 0 16.109 0"/><path fill="#007B84" d="M38 0v24H21.095c-1.34 0-2.17-1.09-1.856-2.427L23.697 2.43C24.01 1.09 25.346 0 26.685 0z"/><path fill="#FEFEFE" d="M9.83 6.134c-.984.01-1.275 0-1.368-.021-.035.17-.7 3.235-.702 3.237-.143.62-.247 1.063-.6 1.348a1.07 1.07 0 0 1-.707.246c-.437 0-.691-.217-.734-.628l-.008-.141.133-.836s.697-2.793.822-3.162l.01-.043c-1.358.012-1.598 0-1.615-.021-.009.03-.042.203-.042.203l-.713 3.148-.06.267-.12.874c0 .259.052.47.153.65.325.566 1.25.651 1.774.651.674 0 1.307-.143 1.735-.405.742-.438.936-1.124 1.11-1.733l.08-.313s.718-2.901.84-3.278c.005-.021.007-.032.013-.043m2.445 2.341c-.173 0-.49.042-.774.181-.103.053-.2.115-.303.175l.093-.335-.051-.056c-.603.122-.738.138-1.295.216l-.047.031c-.064.537-.122.94-.361 1.994-.092.388-.187.78-.282 1.168l.026.049c.57-.03.744-.03 1.24-.022l.04-.044c.063-.323.071-.398.211-1.052.066-.31.202-.991.27-1.234.124-.057.246-.113.363-.113.278 0 .244.242.233.339-.012.162-.113.692-.217 1.147l-.07.293c-.048.217-.1.428-.149.643l.021.043c.563-.03.734-.03 1.215-.022l.056-.044c.087-.504.112-.639.266-1.373l.078-.337c.15-.66.226-.995.112-1.268-.12-.305-.41-.379-.675-.379m2.731.691c-.299.058-.49.096-.679.12-.188.03-.371.058-.66.098l-.023.021-.021.017c-.03.215-.051.4-.091.62a11 11 0 0 1-.17.852c-.066.283-.1.381-.137.48-.037.1-.077.197-.15.475l.017.025.014.024c.27-.013.447-.022.628-.024.182-.006.37 0 .66.002l.026-.02.027-.024c.042-.25.049-.318.074-.44.026-.131.07-.313.177-.798.051-.228.108-.455.16-.687q.084-.347.167-.688l-.008-.027zm.007-.932c-.272-.16-.749-.11-1.07.112-.32.217-.356.526-.086.688.267.156.746.11 1.064-.114.32-.222.36-.527.092-.686m1.643 3.714c.55 0 1.113-.151 1.537-.6.326-.366.476-.908.528-1.131.169-.74.037-1.086-.128-1.297-.25-.32-.694-.424-1.153-.424-.277 0-.935.027-1.449.502-.37.341-.54.805-.643 1.25-.104.454-.223 1.27.527 1.573.232.1.566.127.78.127m-.043-1.666c.127-.56.276-1.031.658-1.031.3 0 .321.35.188.913-.024.125-.133.589-.28.787-.104.145-.226.234-.361.234-.04 0-.279 0-.283-.355a2.4 2.4 0 0 1 .078-.548m3.482 1.594.043-.044c.06-.322.07-.398.206-1.052.067-.31.207-.991.272-1.233.125-.058.245-.115.365-.115.276 0 .243.243.232.34-.01.162-.112.692-.217 1.147l-.066.293c-.05.217-.105.428-.153.643l.021.043c.564-.03.73-.03 1.213-.022l.058-.044c.085-.504.108-.639.266-1.373l.076-.337c.151-.66.228-.995.116-1.268-.124-.305-.415-.379-.677-.379-.173 0-.491.042-.774.182a5 5 0 0 0-.302.175l.087-.336-.047-.057c-.602.123-.74.14-1.296.218l-.043.03c-.067.537-.122.94-.362 1.994-.091.388-.186.78-.28 1.168l.025.049c.571-.03.742-.03 1.237-.022m4.147.022c.035-.173.246-1.2.248-1.2 0 0 .18-.753.19-.78 0 0 .057-.079.113-.11h.083c.784 0 1.67 0 2.364-.51.472-.35.795-.868.939-1.496a2.3 2.3 0 0 0 .065-.52c0-.241-.049-.48-.188-.665-.354-.495-1.059-.504-1.872-.508l-.401.004c-1.042.012-1.46.009-1.63-.012l-.042.21-.373 1.732-.935 3.849c.91-.011 1.282-.011 1.439.006m.69-3.071.396-1.719.012-.088.006-.068.159.017.837.072c.322.125.455.447.363.867a1.26 1.26 0 0 1-.654.863c-.264.132-.587.143-.92.143h-.214zm2.47 1.487c-.105.447-.225 1.263.522 1.554.238.101.45.131.668.12.229-.012.44-.127.637-.292l-.053.204.034.043a20 20 0 0 1 1.286-.018l.053-.04c.084-.5.165-.984.385-1.94q.16-.685.326-1.367l-.018-.05c-.6.111-.76.135-1.339.217l-.044.036-.017.135a.83.83 0 0 0-.421-.346c-.257-.101-.861.029-1.38.501-.364.338-.54.8-.639 1.243m1.262.027c.129-.55.276-1.016.66-1.016.241 0 .369.223.343.604-.02.095-.043.195-.07.309q-.059.244-.12.488a1.2 1.2 0 0 1-.141.286c-.099.14-.333.226-.468.226-.038 0-.274 0-.283-.348a2.4 2.4 0 0 1 .079-.549m6.59-1.818-.047-.053c-.595.12-.702.14-1.248.214l-.04.04-.007.026-.002-.01c-.406.939-.394.736-.725 1.475l-.004-.09-.083-1.602-.052-.053c-.623.12-.637.14-1.213.214l-.044.04c-.007.019-.007.04-.01.063l.003.008c.072.367.055.286.127.865.034.285.078.571.112.852.057.47.088.702.158 1.42-.389.64-.48.883-.854 1.446l.002.005-.263.417c-.03.044-.058.074-.096.087a.4.4 0 0 1-.172.024h-.146l-.217.721.744.013c.436-.002.711-.206.859-.48l.468-.802h-.008l.05-.056c.314-.678 2.707-4.784 2.707-4.784m-7.852 9.473h-.316l1.168-3.863h.388l.123-.398.012.442c-.015.274.2.516.766.476h.654l.225-.744h-.246q-.212.002-.2-.112l-.011-.45h-1.21v.002c-.392.008-1.561.038-1.798.1-.286.075-.588.292-.588.292l.118-.399h-1.132l-.236.79-1.184 3.923h-.23l-.225.739h2.256l-.076.246h1.112l.074-.246h.312zm-.925-3.078c-.182.05-.52.202-.52.202l.3-.987h.9l-.216.72s-.278.015-.464.065m.017 1.41s-.283.036-.469.078c-.183.055-.527.23-.527.23l.31-1.027h.905zm-.504 1.677h-.903l.262-.867h.9zm2.173-2.396h1.301l-.187.605H27.96l-.198.662h1.154l-.874 1.23a.36.36 0 0 1-.177.148.5.5 0 0 1-.234.067h-.32l-.22.725h.837c.435 0 .692-.198.882-.457l.599-.82.129.832c.027.156.139.247.215.283.084.042.17.114.292.125.132.005.226.01.29.01h.41l.248-.811h-.163c-.093 0-.253-.016-.28-.045-.028-.036-.028-.09-.042-.173l-.13-.835h-.535l.234-.279h1.316l.202-.662h-1.218l.19-.605h1.214l.226-.747h-3.621zm-10.989 2.565.304-1.01h1.248l.228-.752h-1.249l.19-.622h1.221l.227-.727h-3.055l-.221.727h.694l-.185.622h-.696l-.23.764h.693l-.405 1.337c-.055.177.026.244.077.326.052.08.104.134.223.164.122.027.206.043.32.043h1.407l.25-.832-.623.086c-.12 0-.454-.015-.418-.126m.144-4.836-.317.571q-.1.187-.183.238-.073.044-.283.043h-.165l-.22.731h.548c.263 0 .466-.096.562-.145.104-.055.131-.023.212-.1l.185-.161h1.711l.227-.762h-1.252l.218-.415zm2.526 4.85c-.029-.042-.008-.116.037-.27l.467-1.548h1.664q.363-.003.532-.014.183-.019.4-.135a.75.75 0 0 0 .291-.268c.072-.1.188-.317.287-.651l.588-1.96-1.726.01s-.532.079-.766.165c-.236.097-.574.367-.574.367l.156-.537h-1.067L18.64 18.3a3 3 0 0 0-.097.415c-.003.09.114.18.19.247.09.068.221.057.348.068.133.01.323.016.584.016h.82l.252-.85-.734.07a.2.2 0 0 1-.159-.078m.806-2.864h1.748l-.111.349c-.016.008-.053-.018-.23.003h-1.514zm.35-1.168h1.763l-.127.42s-.83-.008-.964.016c-.585.101-.927.414-.927.414zm1.326 2.683a.2.2 0 0 1-.07.107q-.05.033-.178.032h-.249l.015-.425h-1.036l-.042 2.074c-.002.15.013.236.122.305.11.087.447.098.901.098h.65l.233-.776-.565.03-.188.012c-.025-.011-.05-.021-.077-.048-.024-.024-.064-.01-.057-.16l.004-.53.593-.025c.32 0 .456-.104.573-.203.111-.095.148-.205.19-.352l.1-.471h-.815z"/></g></g></svg>