<svg xmlns="http://www.w3.org/2000/svg" width="38" height="24" viewBox="0 0 38 24"><title>Visa</title><g fill="none" fill-rule="evenodd"><path fill="#FFF" d="M0 0h38v24H0z"/><path fill="#172B85" d="M11.5 17.503H8.904l-1.947-7.43c-.092-.342-.289-.644-.577-.786A8.5 8.5 0 0 0 4 8.5v-.286h4.183c.577 0 1.01.43 1.082.93l1.01 5.359 2.595-6.289h2.524zm5.337 0h-2.452l2.02-9.289h2.452zm5.192-6.715c.072-.5.505-.787 1.01-.787a4.57 4.57 0 0 1 2.38.429l.433-2A6.2 6.2 0 0 0 23.616 8c-2.38 0-4.112 1.287-4.112 3.073 0 1.358 1.227 2.071 2.093 2.501.937.429 1.298.715 1.225 1.143 0 .643-.721.929-1.441.929-.866 0-1.732-.214-2.524-.572l-.433 2.001c.865.357 1.802.5 2.668.5 2.668.071 4.327-1.215 4.327-3.144 0-2.43-3.39-2.572-3.39-3.643M34 17.503l-1.947-9.289h-2.091c-.433 0-.866.286-1.01.715l-3.605 8.574h2.524l.503-1.357h3.102l.288 1.357zm-3.677-6.787.72 3.5h-2.019z"/></g></svg>