<svg xmlns="http://www.w3.org/2000/svg" width="38" height="24" viewBox="0 0 38 24"><title>Wechat Pay</title><g fill="none" fill-rule="evenodd"><path fill="#FFF" d="M0 0h38v24H0z"/><path fill="#1AAD19" fill-rule="nonzero" d="M16.586 14.12a.6.6 0 0 1-.266.066.59.59 0 0 1-.514-.31l-.04-.086-1.61-3.622a.3.3 0 0 1-.03-.128c0-.166.133-.302.296-.302.066 0 .127.023.177.06l1.902 1.387a.87.87 0 0 0 .786.092L26.232 7.2C24.629 5.265 21.988 4 19 4c-4.89 0-8.854 3.383-8.854 7.556 0 2.277 1.193 4.326 3.06 5.712a.61.61 0 0 1 .216.685l-.399 1.524c-.019.071-.048.146-.048.22 0 .168.133.303.296.303a.33.33 0 0 0 .17-.056l1.938-1.147c.146-.085.3-.139.47-.139q.137 0 .26.04c.905.266 1.88.415 2.89.415 4.89 0 8.855-3.384 8.855-7.557a6.66 6.66 0 0 0-1.009-3.501l-10.194 6.028z"/></g></svg>